<svg xmlns="http://www.w3.org/2000/svg"  shape-rendering="crispEdges" xmlns:xlink="http://www.w3.org/1999/xlink" width="1.179in" height="1.2in" viewBox="0 0 117.9 120">			<style type="text/css">
			path, polyline, polygon { stroke-linejoin: round;}
			path, polyline, polygon, line { stroke-linecap: round;}
			rect, circle, ellipse, polyline, polygon, line, path { shape-rendering: crispEdges;}
			*[layerid="0"] { stroke: #FFFFFF; FILL: #FFFFFF;}
				*[layerid="1"] { stroke: #FF0000; fill: #FF0000;}				*[layerid="2"] { stroke: #0000FF; fill: #0000FF;}				*[layerid="3"] { stroke: #FFFF00; fill: #FFFF00;}				*[layerid="4"] { stroke: #808000; fill: #808000;}				*[layerid="5"] { stroke: #808080; fill: #808080;}				*[layerid="6"] { stroke: #800000; fill: #800000;}				*[layerid="7"] { stroke: #800080; fill: #800080;}				*[layerid="8"] { stroke: #AA00FF; fill: #AA00FF;}				*[layerid="9"] { stroke: #6464FF; fill: #6464FF;}				*[layerid="10"] { stroke: #FF00FF; fill: #FF00FF;}				*[layerid="11"] { stroke: #C0C0C0; fill: #C0C0C0;}				*[layerid="12"] { stroke: #FFFFFF; fill: #FFFFFF;}				*[layerid="21"] { stroke: #800000; fill: #800000;}				*[layerid="22"] { stroke: #008000; fill: #008000;}				*[layerid="23"] { stroke: #00FF00; fill: #00FF00;}				*[layerid="24"] { stroke: #000080; fill: #000080;}					*[fill="none"] { fill: none; }
			*[stroke="none"] { stroke: none;}
			g[c_partid="part_pad"] > * + circle { fill: #000000;}
			g[c_partid="part_via"] > * + circle { fill: #000000;}</style><g > 	<rect x="0" y="0" width="67.9" height="70" fill="#000000" stroke="#000000" stroke-width="5"/> <polyline points="0 0 67.874 0 67.874 70 0 70 0 0" stroke-width="1"   stroke-linecap="round" fill="none" layerid="10"/> <polyline points="5.669 44.173 14.331 44.173 14.331 15.827 5.276 15.827 5.276 17.008 5.276 44.173" stroke-width="1"   stroke-linecap="round" fill="none" layerid="4"/> <polyline points="10 10 10 10" stroke-width="1"   stroke-linecap="round" fill="none" layerid="4"/> <polyline points="10 9.921 10 15.433" stroke-width="1"   stroke-linecap="round" fill="none" layerid="4"/> <polyline points="10 50 10 44.173" stroke-width="1"   stroke-linecap="round" fill="none" layerid="4"/> <polyline points="67.01 46.849 46.892 46.849 46.892 23.227 67.01 23.227 67.01 46.849" stroke-width="0.8999986"   stroke-linecap="round" fill="none" layerid="4"/> <polyline points="40 20 46.18 20 49.25 16.93" stroke-width="1.9685"   stroke-linecap="round" fill="none" layerid="2"/> <polyline points="49.37 43.94 49.25 44.06 49.25 53.15" stroke-width="1.9685"   stroke-linecap="round" fill="none" layerid="2"/> <polyline points="20 20 20 1.654 64.331 1.654 64.331 1.654 64.25 16.93" stroke-width="1.9685"   stroke-linecap="round" fill="none" layerid="2"/> <polyline points="59.21 5.98 59.25 6.02 59.25 16.93" stroke-width="1.9685"   stroke-linecap="round" fill="none" layerid="2"/> <polyline points="30 20 30 40" stroke-width="1.9685"   stroke-linecap="round" fill="none" layerid="2"/> <polyline points="30 60 30 60" stroke-width="1"   stroke-linecap="round" fill="none" layerid="2"/> <polyline points="10 50 20 50 20 60" stroke-width="1.9685"   stroke-linecap="round" fill="none" layerid="2"/> <polyline points="59.25 53.15 59.25 68.546 59.213 68.583 20.63 68.583 20.236 68.189 20 67.953 20 60" stroke-width="1.9685"   stroke-linecap="round" fill="none" layerid="2"/> <polyline points="2.918 30 20 30 20 40" stroke-width="1.9685"   stroke-linecap="round" fill="none" layerid="2"/> <polyline points="10 60 1.929 59.923 1.929 40 10 40" stroke-width="1.9685"   stroke-linecap="round" fill="none" layerid="2"/> <polyline points="40 60 30 60" stroke-width="3.937"   stroke-linecap="round" fill="none" layerid="2"/> <polyline points="30 60 30 40" stroke-width="1.9685"   stroke-linecap="round" fill="none" layerid="2"/> <polyline points="40 60 40 65.118 40.315 65.433 53.111 65.433 54.095 64.449 54.25 64.294 54.25 53.15" stroke-width="1.9685"   stroke-linecap="round" fill="none" layerid="2"/> <polyline points="40 40 60 40 60.157 40 63.937 43.78 64.25 44.093 64.25 53.15" stroke-width="1.9685"   stroke-linecap="round" fill="none" layerid="2"/> <polyline points="6.851 23.11 33.425 23.11 33.425 16.221 6.851 16.221 6.851 23.11" stroke-width="0.3937"   stroke-linecap="round" fill="none" layerid="3"/> <polyline points="7.048 43.464 7.048 43.78 33.622 43.78 33.622 36.575 7.048 36.575 7.048 43.464" stroke-width="0.3937"   stroke-linecap="round" fill="none" layerid="3"/> <polyline points="7.045 63.458 7.045 63.774 33.619 63.774 33.619 56.569 7.045 56.569 7.045 63.458" stroke-width="0.3937"   stroke-linecap="round" fill="none" layerid="3"/> <polyline points="10 30 31.457 30 40 40" stroke-width="1.9685"   stroke-linecap="round" fill="none" layerid="1"/> <polyline points="49.37 43.94 49.37 11.26 48.189 10.079 48.11 10 40 10" stroke-width="1.9685"   stroke-linecap="round" fill="none" layerid="1"/> <polyline points="10 20 10 10" stroke-width="1.9685"   stroke-linecap="round" fill="none" layerid="1"/> <polyline points="59.21 5.98 59.21 2.439 58.425 1.654 1.732 1.654 1.732 26.452 2.918 30" stroke-width="1.9685"   stroke-linecap="round" fill="none" layerid="1"/> <polyline points="10 30 10 20" stroke-width="1.9685"   stroke-linecap="round" fill="none" layerid="1"/> <polyline points="10 40 10 30" stroke-width="1.9685"   stroke-linecap="round" fill="none" layerid="1"/>			<path  d="M 7.85599 26.275 L 10.356 24.485 L 10.356 27.175 M 7.85599 26.275 L 11.606 26.275 M 7.85599 28.355 L 11.606 28.355 M 9.10599 30.145 L 10.896 28.355 M 10.176 29.065 L 11.606 30.325 M 7.85599 34.005 L 11.606 32.215 M 7.85599 31.505 L 7.85599 34.005" fill="none" layerid="4"  stroke-linecap="round" stroke-width="0.3937" />			<path  d="M 56.061 1.95999 L 56.061 6.25 M 56.061 1.95999 L 54.632 1.95999 L 54.012 2.16 L 53.611 2.57001 L 53.401 2.98001 L 53.202 3.59 L 53.202 4.60999 L 53.401 5.23001 L 53.611 5.64001 L 54.012 6.04999 L 54.632 6.25 L 56.061 6.25 M 48.982 2.57001 L 49.392 2.16 L 50.012 1.95999 L 50.822 1.95999 L 51.441 2.16 L 51.852 2.57001 L 51.852 2.98001 L 51.642 3.39001 L 51.441 3.59 L 51.031 3.79999 L 49.801 4.20999 L 49.392 4.41 L 49.191 4.60999 L 48.982 5.01999 L 48.982 5.64001 L 49.392 6.04999 L 50.012 6.25 L 50.822 6.25 L 51.441 6.04999 L 51.852 5.64001 M 47.431 2.98001 L 47.431 2.76999 L 47.221 2.35999 L 47.021 2.16 L 46.611 1.95999 L 45.792 1.95999 L 45.382 2.16 L 45.181 2.35999 L 44.971 2.76999 L 44.971 3.17999 L 45.181 3.59 L 45.591 4.20999 L 47.632 6.25 L 44.771 6.25 M 41.371 1.95999 L 43.422 4.82001 L 40.352 4.82001 M 41.371 1.95999 L 41.371 6.25 M 37.982 1.95999 L 38.591 2.16 L 38.801 2.57001 L 38.801 2.98001 L 38.591 3.39001 L 38.181 3.59 L 37.361 3.79999 L 36.751 4 L 36.341 4.41 L 36.142 4.82001 L 36.142 5.42999 L 36.341 5.84 L 36.551 6.04999 L 37.161 6.25 L 37.982 6.25 L 38.591 6.04999 L 38.801 5.84 L 39.001 5.42999 L 39.001 4.82001 L 38.801 4.41 L 38.392 4 L 37.771 3.79999 L 36.961 3.59 L 36.551 3.39001 L 36.341 2.98001 L 36.341 2.57001 L 36.551 2.16 L 37.161 1.95999 L 37.982 1.95999 M 34.581 2.98001 L 34.581 2.76999 L 34.382 2.35999 L 34.172 2.16 L 33.762 1.95999 L 32.952 1.95999 L 32.542 2.16 L 32.331 2.35999 L 32.132 2.76999 L 32.132 3.17999 L 32.331 3.59 L 32.741 4.20999 L 34.792 6.25 L 31.922 6.25 M 30.572 4.41 L 26.892 4.41 M 25.542 2.76999 L 25.132 2.57001 L 24.521 1.95999 L 24.521 6.25 M 21.941 1.95999 L 22.561 2.16 L 22.961 2.76999 L 23.172 3.79999 L 23.172 4.41 L 22.961 5.42999 L 22.561 6.04999 L 21.941 6.25 L 21.531 6.25 L 20.922 6.04999 L 20.512 5.42999 L 20.311 4.41 L 20.311 3.79999 L 20.512 2.76999 L 20.922 2.16 L 21.531 1.95999 L 21.941 1.95999 M 17.732 1.95999 L 18.341 2.16 L 18.751 2.76999 L 18.961 3.79999 L 18.961 4.41 L 18.751 5.42999 L 18.341 6.04999 L 17.732 6.25 L 17.322 6.25 L 16.711 6.04999 L 16.301 5.42999 L 16.091 4.41 L 16.091 3.79999 L 16.301 2.76999 L 16.711 2.16 L 17.322 1.95999 L 17.732 1.95999" fill="none" layerid="4"  stroke-linecap="round" stroke-width="0.7" />			<circle cx="64.25" cy="44.15" r="1" layerid="4" stroke-width="1" fill="none" />			<g c_partid="part_pad" c_type="pinpart" layerid="2" c_etype="pinpart">	<polygon  points="65.829 48.028 62.679 48.028 62.679 58.268 65.829 58.268" stroke-linecap="round" stroke-width="0" /></g>			<g c_partid="part_pad" c_type="pinpart" layerid="2" c_etype="pinpart">	<polygon  points="60.829 48.028 57.679 48.028 57.679 58.268 60.829 58.268" stroke-linecap="round" stroke-width="0" /></g>			<g c_partid="part_pad" c_type="pinpart" layerid="2" c_etype="pinpart">	<polygon  points="55.829 48.028 52.679 48.028 52.679 58.268 55.829 58.268" stroke-linecap="round" stroke-width="0" /></g>			<g c_partid="part_pad" c_type="pinpart" layerid="2" c_etype="pinpart">	<polygon  points="50.829 48.028 47.679 48.028 47.679 58.268 50.829 58.268" stroke-linecap="round" stroke-width="0" /></g>			<g c_partid="part_pad" c_type="pinpart" layerid="2" c_etype="pinpart">	<polygon  points="50.829 11.808 47.679 11.808 47.679 22.048 50.829 22.048" stroke-linecap="round" stroke-width="0" /></g>			<g c_partid="part_pad" c_type="pinpart" layerid="2" c_etype="pinpart">	<polygon  points="55.829 11.808 52.679 11.808 52.679 22.048 55.829 22.048" stroke-linecap="round" stroke-width="0" /></g>			<g c_partid="part_pad" c_type="pinpart" layerid="2" c_etype="pinpart">	<polygon  points="60.829 11.808 57.679 11.808 57.679 22.048 60.829 22.048" stroke-linecap="round" stroke-width="0" /></g>			<g c_partid="part_pad" c_type="pinpart" layerid="2" c_etype="pinpart">	<polygon  points="65.829 11.808 62.679 11.808 62.679 22.048 65.829 22.048" stroke-linecap="round" stroke-width="0" /></g>			<path  d="M 47.562 58.75 L 47.392 58.39 L 47.032 58.03 L 46.672 57.85 L 45.952 57.85 L 45.602 58.03 L 45.242 58.39 L 45.062 58.75 L 44.882 59.28 L 44.882 60.18 L 45.062 60.72 L 45.242 61.07 L 45.602 61.43 L 45.952 61.61 L 46.672 61.61 L 47.032 61.43 L 47.392 61.07 L 47.562 60.72 L 47.562 60.18 M 46.672 60.18 L 47.562 60.18 M 48.752 57.85 L 48.752 61.61 M 48.752 57.85 L 51.252 61.61 M 51.252 57.85 L 51.252 61.61 M 52.432 57.85 L 52.432 61.61 M 52.432 57.85 L 53.682 57.85 L 54.222 58.03 L 54.582 58.39 L 54.762 58.75 L 54.942 59.28 L 54.942 60.18 L 54.762 60.72 L 54.582 61.07 L 54.222 61.43 L 53.682 61.61 L 52.432 61.61" fill="none" layerid="3"  stroke-linecap="round" stroke-width="0.3937" />			<path  d="M 44.88 47.85 L 44.88 51.61 M 44.88 47.85 L 47.39 51.61 M 47.39 47.85 L 47.39 51.61 M 51.25 48.75 L 51.07 48.39 L 50.71 48.03 L 50.36 47.85 L 49.64 47.85 L 49.28 48.03 L 48.92 48.39 L 48.75 48.75 L 48.57 49.28 L 48.57 50.18 L 48.75 50.72 L 48.92 51.07 L 49.28 51.43 L 49.64 51.61 L 50.36 51.61 L 50.71 51.43 L 51.07 51.07 L 51.25 50.72" fill="none" layerid="3"  stroke-linecap="round" stroke-width="0.3937" />			<path  d="M 44.88 37.85 L 46.31 41.61 M 47.74 37.85 L 46.31 41.61 M 51.07 39.64 L 50.71 39.28 L 50.36 39.11 L 49.82 39.11 L 49.46 39.28 L 49.1 39.64 L 48.92 40.18 L 48.92 40.54 L 49.1 41.07 L 49.46 41.43 L 49.82 41.61 L 50.36 41.61 L 50.71 41.43 L 51.07 41.07 M 54.4 39.64 L 54.04 39.28 L 53.68 39.11 L 53.15 39.11 L 52.79 39.28 L 52.43 39.64 L 52.25 40.18 L 52.25 40.54 L 52.43 41.07 L 52.79 41.43 L 53.15 41.61 L 53.68 41.61 L 54.04 41.43 L 54.4 41.07" fill="none" layerid="3"  stroke-linecap="round" stroke-width="0.3937" />			<path  d="M 44.88 27.85 L 44.88 31.61 M 44.88 27.85 L 47.39 31.61 M 47.39 27.85 L 47.39 31.61 M 51.25 28.75 L 51.07 28.39 L 50.71 28.03 L 50.36 27.85 L 49.64 27.85 L 49.28 28.03 L 48.92 28.39 L 48.75 28.75 L 48.57 29.28 L 48.57 30.18 L 48.75 30.72 L 48.92 31.07 L 49.28 31.43 L 49.64 31.61 L 50.36 31.61 L 50.71 31.43 L 51.07 31.07 L 51.25 30.72" fill="none" layerid="3"  stroke-linecap="round" stroke-width="0.3937" />			<path  d="M 47.392 18.39 L 47.032 18.03 L 46.492 17.85 L 45.772 17.85 L 45.242 18.03 L 44.882 18.39 L 44.882 18.75 L 45.062 19.11 L 45.242 19.28 L 45.602 19.46 L 46.672 19.82 L 47.032 20 L 47.212 20.18 L 47.392 20.54 L 47.392 21.07 L 47.032 21.43 L 46.492 21.61 L 45.772 21.61 L 45.242 21.43 L 44.882 21.07 M 48.572 17.85 L 48.572 21.61 M 48.572 17.85 L 49.822 17.85 L 50.362 18.03 L 50.712 18.39 L 50.892 18.75 L 51.072 19.28 L 51.072 20.18 L 50.892 20.72 L 50.712 21.07 L 50.362 21.43 L 49.822 21.61 L 48.572 21.61 M 53.682 17.85 L 52.252 21.61 M 53.682 17.85 L 55.122 21.61 M 52.792 20.36 L 54.582 20.36" fill="none" layerid="3"  stroke-linecap="round" stroke-width="0.3937" />			<path  d="M 47.392 8.39001 L 47.032 8.03 L 46.492 7.85001 L 45.772 7.85001 L 45.242 8.03 L 44.882 8.39001 L 44.882 8.75 L 45.062 9.10999 L 45.242 9.28 L 45.602 9.45999 L 46.672 9.82001 L 47.032 10 L 47.212 10.18 L 47.392 10.54 L 47.392 11.07 L 47.032 11.43 L 46.492 11.61 L 45.772 11.61 L 45.242 11.43 L 44.882 11.07 M 51.252 8.75 L 51.072 8.39001 L 50.712 8.03 L 50.362 7.85001 L 49.642 7.85001 L 49.282 8.03 L 48.922 8.39001 L 48.752 8.75 L 48.572 9.28 L 48.572 10.18 L 48.752 10.72 L 48.922 11.07 L 49.282 11.43 L 49.642 11.61 L 50.362 11.61 L 50.712 11.43 L 51.072 11.07 L 51.252 10.72 M 52.432 7.85001 L 52.432 11.61 M 52.432 11.61 L 54.582 11.61" fill="none" layerid="3"  stroke-linecap="round" stroke-width="0.3937" />			<path  d="M 18.159 11.945 L 16.729 15.705 M 18.159 11.945 L 19.599 15.705 M 17.269 14.455 L 19.059 14.455 M 21.849 11.945 L 21.309 12.125 L 20.959 12.665 L 20.779 13.555 L 20.779 14.095 L 20.959 14.985 L 21.309 15.525 L 21.849 15.705 L 22.209 15.705 L 22.749 15.525 L 23.099 14.985 L 23.279 14.095 L 23.279 13.555 L 23.099 12.665 L 22.749 12.125 L 22.209 11.945 L 21.849 11.945" fill="none" layerid="3"  stroke-linecap="round" stroke-width="0.3937" />			<path  d="M 19.107 44.582 L 17.677 48.342 M 19.107 44.582 L 20.537 48.342 M 18.217 47.092 L 20.007 47.092 M 21.717 45.302 L 22.077 45.122 L 22.617 44.582 L 22.617 48.342" fill="none" layerid="3"  stroke-linecap="round" stroke-width="0.3937" />			<path  d="M 26.027 28.639 L 25.677 28.819 L 25.317 29.179 L 25.137 29.539 L 24.957 30.069 L 24.957 30.969 L 25.137 31.509 L 25.317 31.859 L 25.677 32.219 L 26.027 32.399 L 26.747 32.399 L 27.107 32.219 L 27.467 31.859 L 27.637 31.509 L 27.817 30.969 L 27.817 30.069 L 27.637 29.539 L 27.467 29.179 L 27.107 28.819 L 26.747 28.639 L 26.027 28.639 M 28.997 28.639 L 28.997 32.399 M 28.997 28.639 L 31.327 28.639 M 28.997 30.429 L 30.437 30.429 M 32.507 28.639 L 32.507 32.399 M 32.507 28.639 L 34.837 28.639 M 32.507 30.429 L 33.937 30.429" fill="none" layerid="3"  stroke-linecap="round" stroke-width="0.3937" />			<path  d="M 7.28799 28.245 L 6.92801 28.425 L 6.578 28.785 L 6.39801 29.145 L 6.21799 29.675 L 6.21799 30.575 L 6.39801 31.115 L 6.578 31.465 L 6.92801 31.825 L 7.28799 32.005 L 8.008 32.005 L 8.36801 31.825 L 8.71799 31.465 L 8.89801 31.115 L 9.078 30.575 L 9.078 29.675 L 8.89801 29.145 L 8.71799 28.785 L 8.36801 28.425 L 8.008 28.245 L 7.28799 28.245 M 10.258 28.245 L 10.258 32.005 M 10.258 28.245 L 12.768 32.005 M 12.768 28.245 L 12.768 32.005" fill="none" layerid="3"  stroke-linecap="round" stroke-width="0.3937" />			<path  d="M 17.48 65.33 L 18.2 67.83 M 18.91 65.33 L 18.2 67.83 M 18.91 65.33 L 19.63 67.83 M 20.34 65.33 L 19.63 67.83 M 21.52 64.79 L 21.88 64.61 L 22.42 64.07 L 22.42 67.83" fill="none" layerid="3"  stroke-linecap="round" stroke-width="0.3937" />			<path  d="M 29.612 65.36 L 29.442 65 L 29.082 64.64 L 28.722 64.46 L 28.002 64.46 L 27.652 64.64 L 27.292 65 L 27.112 65.36 L 26.932 65.89 L 26.932 66.79 L 27.112 67.33 L 27.292 67.68 L 27.652 68.04 L 28.002 68.22 L 28.722 68.22 L 29.082 68.04 L 29.442 67.68 L 29.612 67.33 L 29.612 66.79 M 28.722 66.79 L 29.612 66.79 M 30.802 64.46 L 30.802 68.22 M 30.802 64.46 L 33.302 68.22 M 33.302 64.46 L 33.302 68.22 M 34.482 64.46 L 34.482 68.22 M 34.482 64.46 L 35.732 64.46 L 36.272 64.64 L 36.632 65 L 36.812 65.36 L 36.992 65.89 L 36.992 66.79 L 36.812 67.33 L 36.632 67.68 L 36.272 68.04 L 35.732 68.22 L 34.482 68.22" fill="none" layerid="3"  stroke-linecap="round" stroke-width="0.3937" />			<path  d="M 3.89801 64.267 L 5.328 68.027 M 6.758 64.267 L 5.328 68.027 M 10.088 66.057 L 9.728 65.697 L 9.37799 65.527 L 8.83801 65.527 L 8.478 65.697 L 8.11801 66.057 L 7.93799 66.597 L 7.93799 66.957 L 8.11801 67.487 L 8.478 67.847 L 8.83801 68.027 L 9.37799 68.027 L 9.728 67.847 L 10.088 67.487 M 13.418 66.057 L 13.058 65.697 L 12.698 65.527 L 12.168 65.527 L 11.808 65.697 L 11.448 66.057 L 11.268 66.597 L 11.268 66.957 L 11.448 67.487 L 11.808 67.847 L 12.168 68.027 L 12.698 68.027 L 13.058 67.847 L 13.418 67.487" fill="none" layerid="3"  stroke-linecap="round" stroke-width="0.3937" />			<path  d="M 62.259 63.126 L 62.259 64.916 L 63.869 65.096 L 63.689 64.916 L 63.519 64.385 L 63.519 63.846 L 63.689 63.306 L 64.049 62.946 L 64.589 62.766 L 64.949 62.766 L 65.479 62.946 L 65.839 63.306 L 66.019 63.846 L 66.019 64.385 L 65.839 64.916 L 65.659 65.096 L 65.299 65.276 M 62.259 61.586 L 66.019 60.156 M 62.259 58.726 L 66.019 60.156 M 62.799 54.786 L 64.409 51.926 L 66.019 54.786 M 63.869 50.746 L 63.869 47.526 M 64.949 50.746 L 64.949 47.526 M 62.259 43.586 L 66.019 42.156 M 62.259 40.726 L 66.019 42.156 M 64.049 37.396 L 63.689 37.756 L 63.519 38.105 L 63.519 38.646 L 63.689 39.006 L 64.049 39.366 L 64.589 39.546 L 64.949 39.546 L 65.479 39.366 L 65.839 39.006 L 66.019 38.646 L 66.019 38.105 L 65.839 37.756 L 65.479 37.396 M 64.049 34.066 L 63.689 34.426 L 63.519 34.786 L 63.519 35.316 L 63.689 35.676 L 64.049 36.036 L 64.589 36.216 L 64.949 36.216 L 65.479 36.036 L 65.839 35.676 L 66.019 35.316 L 66.019 34.786 L 65.839 34.426 L 65.479 34.066 M 62.799 30.126 L 64.409 27.266 L 66.019 30.126 M 63.869 26.086 L 63.869 22.866 M 64.949 26.086 L 64.949 22.866 M 62.259 18.566 L 62.259 16.596 L 63.689 17.676 L 63.689 17.135 L 63.869 16.776 L 64.049 16.596 L 64.589 16.426 L 64.949 16.426 L 65.479 16.596 L 65.839 16.956 L 66.019 17.496 L 66.019 18.036 L 65.839 18.566 L 65.659 18.746 L 65.299 18.926 M 65.129 15.066 L 65.299 15.236 L 65.479 15.066 L 65.299 14.885 L 65.129 15.066 M 62.259 13.346 L 62.259 11.376 L 63.689 12.446 L 63.689 11.916 L 63.869 11.556 L 64.049 11.376 L 64.589 11.196 L 64.949 11.196 L 65.479 11.376 L 65.839 11.736 L 66.019 12.266 L 66.019 12.806 L 65.839 13.346 L 65.659 13.526 L 65.299 13.706 M 62.259 10.016 L 66.019 8.586 M 62.259 7.15601 L 66.019 8.586" fill="none" layerid="3"  stroke-linecap="round" stroke-width="0.3937" />			<g c_partid="part_pad" c_type="pinpart" layerid="11" c_etype="pinpart">	<polygon  points="37.008 57.008 42.992 57.008 42.992 62.992 37.008 62.992" stroke-linecap="round" stroke-width="0" />	<circle cx="40" cy="60" r="1.791335" stroke-width="0" /></g>			<g c_partid="part_pad" c_type="pinpart" layerid="11" c_etype="pinpart">	<ellipse  xmlns="http://www.w3.org/2000/svg" cx="40" cy="50" rx="3" ry="3" stroke-width="0"  />	<circle cx="40" cy="50" r="1.8" stroke-width="0" /></g>			<g c_partid="part_pad" c_type="pinpart" layerid="11" c_etype="pinpart">	<ellipse  xmlns="http://www.w3.org/2000/svg" cx="40" cy="40" rx="3" ry="3" stroke-width="0"  />	<circle cx="40" cy="40" r="1.8" stroke-width="0" /></g>			<g c_partid="part_pad" c_type="pinpart" layerid="11" c_etype="pinpart">	<ellipse  xmlns="http://www.w3.org/2000/svg" cx="40" cy="30" rx="3" ry="3" stroke-width="0"  />	<circle cx="40" cy="30" r="1.8" stroke-width="0" /></g>			<g c_partid="part_pad" c_type="pinpart" layerid="11" c_etype="pinpart">	<ellipse  xmlns="http://www.w3.org/2000/svg" cx="40" cy="20" rx="3" ry="3" stroke-width="0"  />	<circle cx="40" cy="20" r="1.8" stroke-width="0" /></g>			<g c_partid="part_pad" c_type="pinpart" layerid="11" c_etype="pinpart">	<ellipse  xmlns="http://www.w3.org/2000/svg" cx="40" cy="10" rx="3" ry="3" stroke-width="0"  />	<circle cx="40" cy="10" r="1.8" stroke-width="0" /></g>			<g c_partid="part_pad" c_type="pinpart" layerid="11" c_etype="pinpart">	<ellipse  xmlns="http://www.w3.org/2000/svg" cx="20" cy="20" rx="3" ry="3" stroke-width="0"  />	<circle cx="20" cy="20" r="1.8" stroke-width="0" /></g>			<g c_partid="part_pad" c_type="pinpart" layerid="11" c_etype="pinpart">	<ellipse  xmlns="http://www.w3.org/2000/svg" cx="20" cy="40" rx="3" ry="3" stroke-width="0"  />	<circle cx="20" cy="40" r="1.8" stroke-width="0" /></g>			<g c_partid="part_pad" c_type="pinpart" layerid="11" c_etype="pinpart">	<ellipse  xmlns="http://www.w3.org/2000/svg" cx="10" cy="20" rx="3" ry="3" stroke-width="0"  />	<circle cx="10" cy="20" r="1.8" stroke-width="0" /></g>			<g c_partid="part_pad" c_type="pinpart" layerid="11" c_etype="pinpart">	<ellipse  xmlns="http://www.w3.org/2000/svg" cx="10" cy="40" rx="3" ry="3" stroke-width="0"  />	<circle cx="10" cy="40" r="1.8" stroke-width="0" /></g>			<g c_partid="part_pad" c_type="pinpart" layerid="11" c_etype="pinpart">	<polygon  points="27.008 37.008 32.992 37.008 32.992 42.992 27.008 42.992" stroke-linecap="round" stroke-width="0" />	<circle cx="30" cy="40" r="1.791335" stroke-width="0" /></g>			<g c_partid="part_pad" c_type="pinpart" layerid="11" c_etype="pinpart">	<polygon  points="27.008 17.008 32.992 17.008 32.992 22.992 27.008 22.992" stroke-linecap="round" stroke-width="0" />	<circle cx="30" cy="20" r="1.791335" stroke-width="0" /></g>			<g c_partid="part_via" c_type="pinpart" layerid="11"  c_etype="pinpart">
	<circle  xmlns="http://www.w3.org/2000/svg" cx="49.37" cy="43.94" r="1.6" stroke-width="0" stroke="none" />	<circle cx="49.37" cy="43.94" r="0.8" stroke-width="0" stroke="none"/>
	</g>			<g c_partid="part_via" c_type="pinpart" layerid="11"  c_etype="pinpart">
	<circle  xmlns="http://www.w3.org/2000/svg" cx="59.21" cy="5.98" r="1.6" stroke-width="0" stroke="none" />	<circle cx="59.21" cy="5.98" r="0.8" stroke-width="0" stroke="none"/>
	</g>			<g c_partid="part_pad" c_type="pinpart" layerid="11" c_etype="pinpart">	<ellipse  xmlns="http://www.w3.org/2000/svg" cx="20" cy="60" rx="3" ry="3" stroke-width="0"  />	<circle cx="20" cy="60" r="1.8" stroke-width="0" /></g>			<g c_partid="part_pad" c_type="pinpart" layerid="11" c_etype="pinpart">	<polygon  points="27.008 57.008 32.992 57.008 32.992 62.992 27.008 62.992" stroke-linecap="round" stroke-width="0" />	<circle cx="30" cy="60" r="1.791335" stroke-width="0" /></g>			<g c_partid="part_pad" c_type="pinpart" layerid="11" c_etype="pinpart">	<ellipse  xmlns="http://www.w3.org/2000/svg" cx="10" cy="50" rx="3" ry="3" stroke-width="0"  />	<circle cx="10" cy="50" r="1.8" stroke-width="0" /></g>			<g c_partid="part_pad" c_type="pinpart" layerid="11" c_etype="pinpart">	<ellipse  xmlns="http://www.w3.org/2000/svg" cx="10" cy="10" rx="3" ry="3" stroke-width="0"  />	<circle cx="10" cy="10" r="1.8" stroke-width="0" /></g>			<g c_partid="part_pad" c_type="pinpart" layerid="11" c_etype="pinpart">	<ellipse  xmlns="http://www.w3.org/2000/svg" cx="10" cy="60" rx="3" ry="3" stroke-width="0"  />	<circle cx="10" cy="60" r="1.8" stroke-width="0" /></g>			<g c_partid="part_via" c_type="pinpart" layerid="11"  c_etype="pinpart">
	<circle  xmlns="http://www.w3.org/2000/svg" cx="2.91" cy="30" r="1.6" stroke-width="0" stroke="none" />	<circle cx="2.91" cy="30" r="0.8" stroke-width="0" stroke="none"/>
	</g>			<g c_partid="part_hole" c_type="pinpart" layerid="11" c_etype="pinpart">
			<circle cx="30" cy="10" r="4" stroke="none"/>
			<ellipse cx="30" cy="10" rx="4.8" ry="4.8" stroke-width="0.5" fill="none"/>
			</g></g></svg>