<svg xmlns="http://www.w3.org/2000/svg"  shape-rendering="crispEdges" xmlns:xlink="http://www.w3.org/1999/xlink" width="1.3in" height="1.7in" viewBox="0 0 130 170">			<style type="text/css">
			path, polyline, polygon { stroke-linejoin: round;}
			path, polyline, polygon, line { stroke-linecap: round;}
			rect, circle, ellipse, polyline, polygon, line, path { shape-rendering: crispEdges;}
			*[layerid="0"] { stroke: #FFFFFF; FILL: #FFFFFF;}
				*[layerid="1"] { stroke: #FF0000; fill: #FF0000;}				*[layerid="2"] { stroke: #0000FF; fill: #0000FF;}				*[layerid="3"] { stroke: #FFFF00; fill: #FFFF00;}				*[layerid="4"] { stroke: #808000; fill: #808000;}				*[layerid="5"] { stroke: #808080; fill: #808080;}				*[layerid="6"] { stroke: #800000; fill: #800000;}				*[layerid="7"] { stroke: #800080; fill: #800080;}				*[layerid="8"] { stroke: #AA00FF; fill: #AA00FF;}				*[layerid="9"] { stroke: #6464FF; fill: #6464FF;}				*[layerid="10"] { stroke: #FF00FF; fill: #FF00FF;}				*[layerid="11"] { stroke: #C0C0C0; fill: #C0C0C0;}				*[layerid="12"] { stroke: #FFFFFF; fill: #FFFFFF;}				*[layerid="21"] { stroke: #800000; fill: #800000;}				*[layerid="22"] { stroke: #008000; fill: #008000;}				*[layerid="23"] { stroke: #00FF00; fill: #00FF00;}				*[layerid="24"] { stroke: #000080; fill: #000080;}					*[fill="none"] { fill: none; }
			*[stroke="none"] { stroke: none;}
			g[c_partid="part_pad"] > * + circle { fill: #000000;}
			g[c_partid="part_via"] > * + circle { fill: #000000;}</style><g > 	<rect x="0" y="0" width="80" height="120" fill="#000000" stroke="#000000" stroke-width="5"/> <polyline points="20 0 80 0 80 120 0 120 0 0 20 0" stroke-width="1"   stroke-linecap="round" fill="none" layerid="10"/> <polyline points="72.1 28 71.7 28.4" stroke-width="0.508"   stroke-linecap="round" fill="none" layerid="4"/> <polyline points="72.1 27.6 71.3 28.4" stroke-width="0.508"   stroke-linecap="round" fill="none" layerid="4"/> <polyline points="72.1 27.2 70.9 28.4" stroke-width="0.508"   stroke-linecap="round" fill="none" layerid="4"/> <polyline points="72.1 26.8 70.5 28.4" stroke-width="0.508"   stroke-linecap="round" fill="none" layerid="4"/> <polyline points="72.1 26.4 70.1 28.4" stroke-width="0.508"   stroke-linecap="round" fill="none" layerid="4"/> <polyline points="72.1 25.6 69.3 28.4" stroke-width="0.508"   stroke-linecap="round" fill="none" layerid="4"/> <polyline points="72.1 26 69.7 28.4" stroke-width="0.508"   stroke-linecap="round" fill="none" layerid="4"/> <polyline points="64.8 21.8 64.8 18.8" stroke-width="0.508"   stroke-linecap="round" fill="none" layerid="4"/> <polyline points="67.4 28.6 67.4 31.6" stroke-width="0.508"   stroke-linecap="round" fill="none" layerid="4"/> <polyline points="67.4 21.8 67.4 18.8" stroke-width="0.508"   stroke-linecap="round" fill="none" layerid="4"/> <polyline points="62.2 21.8 62.2 18.8" stroke-width="0.508"   stroke-linecap="round" fill="none" layerid="4"/> <polyline points="70 21.8 70 18.8" stroke-width="0.508"   stroke-linecap="round" fill="none" layerid="4"/> <polyline points="64.8 28.6 64.8 31.6" stroke-width="0.508"   stroke-linecap="round" fill="none" layerid="4"/> <polyline points="62.2 28.6 62.2 31.6" stroke-width="0.508"   stroke-linecap="round" fill="none" layerid="4"/> <polyline points="70 28.6 70 31.6" stroke-width="0.508"   stroke-linecap="round" fill="none" layerid="4"/> <polyline points="72.1 21.8 60.1 21.8" stroke-width="0.508"   stroke-linecap="round" fill="none" layerid="4"/> <polyline points="60.1 21.8 60.1 28.6" stroke-width="0.508"   stroke-linecap="round" fill="none" layerid="4"/> <polyline points="60.1 28.6 72.1 28.6" stroke-width="0.508"   stroke-linecap="round" fill="none" layerid="4"/> <polyline points="72.1 28.6 72.1 21.8" stroke-width="0.508"   stroke-linecap="round" fill="none" layerid="4"/> <polyline points="20 20 20 30" stroke-width="1"   stroke-linecap="round" fill="none" layerid="3"/> <polyline points="20 60 20 50" stroke-width="1"   stroke-linecap="round" fill="none" layerid="3"/> <polyline points="20 50 23.5 50 23.5 30 16.5 30 16.5 50 20 50" stroke-width="1"   stroke-linecap="round" fill="none" layerid="3"/> <polyline points="46.059 85.946 74.173 85.946 74.173 93.977 46.059 93.977 46.059 85.946" stroke-width="0.98425"   stroke-linecap="round" fill="none" layerid="3"/> <polyline points="46.023 106.098 74.137 106.098 74.137 114.129 46.023 114.129 46.023 106.098" stroke-width="0.98425"   stroke-linecap="round" fill="none" layerid="3"/> <polyline points="26.5 93.5 26.5 103.5 33.5 103.5 33.5 77 26.5 77 26.5 93.5" stroke-width="1"   stroke-linecap="round" fill="none" layerid="3"/> <polyline points="62.2 30 62.2 37.8 60 40 40 40" stroke-width="0.98425"   stroke-linecap="round" fill="none" layerid="2"/> <polyline points="64.8 30 64.8 55.2 60 60 40 60" stroke-width="0.98425"   stroke-linecap="round" fill="none" layerid="2"/> <polyline points="62.2 20.4 62.2 12.2 60 10 40 10" stroke-width="0.98425"   stroke-linecap="round" fill="none" layerid="2"/> <polyline points="65 10 64.8 10.2 64.8 20.4" stroke-width="0.98425"   stroke-linecap="round" fill="none" layerid="2"/> <polyline points="60 90 60 80 60 79 73 66 73 23.4 70 20.4" stroke-width="0.98425"   stroke-linecap="round" fill="none" layerid="2"/> <polyline points="60 110 60 100 78.5 100 78.5 18.412 71.5 11 70 11 67.4 13.6 67.4 20.4" stroke-width="0.98425"   stroke-linecap="round" fill="none" layerid="2"/> <polyline points="10 80 10 20 20 20" stroke-width="5.9055"   stroke-linecap="round" fill="none" layerid="2"/> <polyline points="10 90 20 90 20 60" stroke-width="5.9055"   stroke-linecap="round" fill="none" layerid="2"/> <polyline points="67.4 30 67.4 62.6 60 70 20 70 20 60" stroke-width="1.5748"   stroke-linecap="round" fill="none" layerid="2"/> <polyline points="30 100 10 100" stroke-width="5.9055"   stroke-linecap="round" fill="none" layerid="2"/> <polyline points="70 30 70 64.5 54.5 80 40 80 40 90 30 90" stroke-width="1.5748"   stroke-linecap="round" fill="none" layerid="2"/> <polyline points="30 80 30 20 20 20" stroke-width="5.9055"   stroke-linecap="round" fill="none" layerid="1"/> <polyline points="10 100 30 100" stroke-width="5.9055"   stroke-linecap="round" fill="none" layerid="1"/> <polyline points="40 60 50 60 50 90" stroke-width="0.98425"   stroke-linecap="round" fill="none" layerid="1"/> <polyline points="65 10 55 20 40 20" stroke-width="0.98425"   stroke-linecap="round" fill="none" layerid="1"/> <polyline points="70 90 70 110" stroke-width="0.98425"   stroke-linecap="round" fill="none" layerid="1"/> <polyline points="50 110 50 90" stroke-width="0.98425"   stroke-linecap="round" fill="none" layerid="1"/> <polyline points="70 90 70 60 50 40 40 40 40 40" stroke-width="0.98425"   stroke-linecap="round" fill="none" layerid="1"/> <polyline points="10 80 10 20 20 20" stroke-width="5.9055"   stroke-linecap="round" fill="none" layerid="1"/> <polyline points="20 60 20 70" stroke-width="5.9055"   stroke-linecap="round" fill="none" layerid="1"/> <polyline points="20 70 20 90 10 90" stroke-width="5.9055"   stroke-linecap="round" fill="none" layerid="1"/>			<path  d="M 52.68 58.75 L 52.51 58.39 L 52.15 58.03 L 51.79 57.85 L 51.07 57.85 L 50.72 58.03 L 50.36 58.39 L 50.18 58.75 L 50 59.28 L 50 60.18 L 50.18 60.72 L 50.36 61.07 L 50.72 61.43 L 51.07 61.61 L 51.79 61.61 L 52.15 61.43 L 52.51 61.07 L 52.68 60.72 L 52.68 60.18 M 51.79 60.18 L 52.68 60.18 M 53.87 57.85 L 53.87 61.61 M 53.87 57.85 L 56.37 61.61 M 56.37 57.85 L 56.37 61.61 M 57.55 57.85 L 57.55 61.61 M 57.55 57.85 L 58.8 57.85 L 59.34 58.03 L 59.7 58.39 L 59.88 58.75 L 60.06 59.28 L 60.06 60.18 L 59.88 60.72 L 59.7 61.07 L 59.34 61.43 L 58.8 61.61 L 57.55 61.61" fill="none" layerid="3"  stroke-linecap="round" stroke-width="0.3937" />			<path  d="M 50 47.85 L 50 51.61 M 50 47.85 L 52.51 51.61 M 52.51 47.85 L 52.51 51.61 M 56.37 48.75 L 56.19 48.39 L 55.83 48.03 L 55.48 47.85 L 54.76 47.85 L 54.4 48.03 L 54.04 48.39 L 53.87 48.75 L 53.69 49.28 L 53.69 50.18 L 53.87 50.72 L 54.04 51.07 L 54.4 51.43 L 54.76 51.61 L 55.48 51.61 L 55.83 51.43 L 56.19 51.07 L 56.37 50.72" fill="none" layerid="3"  stroke-linecap="round" stroke-width="0.3937" />			<path  d="M 50 37.85 L 51.43 41.61 M 52.86 37.85 L 51.43 41.61 M 56.19 39.64 L 55.83 39.28 L 55.48 39.11 L 54.94 39.11 L 54.58 39.28 L 54.22 39.64 L 54.04 40.18 L 54.04 40.54 L 54.22 41.07 L 54.58 41.43 L 54.94 41.61 L 55.48 41.61 L 55.83 41.43 L 56.19 41.07 M 59.52 39.64 L 59.16 39.28 L 58.8 39.11 L 58.27 39.11 L 57.91 39.28 L 57.55 39.64 L 57.37 40.18 L 57.37 40.54 L 57.55 41.07 L 57.91 41.43 L 58.27 41.61 L 58.8 41.61 L 59.16 41.43 L 59.52 41.07" fill="none" layerid="3"  stroke-linecap="round" stroke-width="0.3937" />			<path  d="M 52.51 18.39 L 52.15 18.03 L 51.61 17.85 L 50.89 17.85 L 50.36 18.03 L 50 18.39 L 50 18.75 L 50.18 19.11 L 50.36 19.28 L 50.72 19.46 L 51.79 19.82 L 52.15 20 L 52.33 20.18 L 52.51 20.54 L 52.51 21.07 L 52.15 21.43 L 51.61 21.61 L 50.89 21.61 L 50.36 21.43 L 50 21.07 M 53.69 17.85 L 53.69 21.61 M 53.69 17.85 L 54.94 17.85 L 55.48 18.03 L 55.83 18.39 L 56.01 18.75 L 56.19 19.28 L 56.19 20.18 L 56.01 20.72 L 55.83 21.07 L 55.48 21.43 L 54.94 21.61 L 53.69 21.61 M 58.8 17.85 L 57.37 21.61 M 58.8 17.85 L 60.24 21.61 M 57.91 20.36 L 59.7 20.36" fill="none" layerid="3"  stroke-linecap="round" stroke-width="0.3937" />			<path  d="M 52.51 8.39001 L 52.15 8.03 L 51.61 7.85001 L 50.89 7.85001 L 50.36 8.03 L 50 8.39001 L 50 8.75 L 50.18 9.10999 L 50.36 9.28 L 50.72 9.45999 L 51.79 9.82001 L 52.15 10 L 52.33 10.18 L 52.51 10.54 L 52.51 11.07 L 52.15 11.43 L 51.61 11.61 L 50.89 11.61 L 50.36 11.43 L 50 11.07 M 56.37 8.75 L 56.19 8.39001 L 55.83 8.03 L 55.48 7.85001 L 54.76 7.85001 L 54.4 8.03 L 54.04 8.39001 L 53.87 8.75 L 53.69 9.28 L 53.69 10.18 L 53.87 10.72 L 54.04 11.07 L 54.4 11.43 L 54.76 11.61 L 55.48 11.61 L 55.83 11.43 L 56.19 11.07 L 56.37 10.72 M 57.55 7.85001 L 57.55 11.61 M 57.55 11.61 L 59.7 11.61" fill="none" layerid="3"  stroke-linecap="round" stroke-width="0.3937" />			<path  d="M 50 27.85 L 50 31.61 M 50 27.85 L 52.51 31.61 M 52.51 27.85 L 52.51 31.61 M 56.37 28.75 L 56.19 28.39 L 55.83 28.03 L 55.48 27.85 L 54.76 27.85 L 54.4 28.03 L 54.04 28.39 L 53.87 28.75 L 53.69 29.28 L 53.69 30.18 L 53.87 30.72 L 54.04 31.07 L 54.4 31.43 L 54.76 31.61 L 55.48 31.61 L 55.83 31.43 L 56.19 31.07 L 56.37 30.72" fill="none" layerid="3"  stroke-linecap="round" stroke-width="0.3937" />			<path  d="M 59.54 95.88 L 58.11 99.64 M 59.54 95.88 L 60.97 99.64 M 58.65 98.39 L 60.44 98.39 M 62.15 96.6 L 62.51 96.42 L 63.05 95.88 L 63.05 99.64" fill="none" layerid="3"  stroke-linecap="round" stroke-width="0.3937" />			<path  d="M 59.54 115.96 L 58.11 119.72 M 59.54 115.96 L 60.97 119.72 M 58.65 118.47 L 60.44 118.47 M 63.23 115.96 L 62.69 116.14 L 62.33 116.68 L 62.15 117.57 L 62.15 118.11 L 62.33 119 L 62.69 119.54 L 63.23 119.72 L 63.59 119.72 L 64.12 119.54 L 64.48 119 L 64.66 118.11 L 64.66 117.57 L 64.48 116.68 L 64.12 116.14 L 63.59 115.96 L 63.23 115.96" fill="none" layerid="3"  stroke-linecap="round" stroke-width="0.3937" />			<path  d="M 69.22 115.96 L 68.87 116.14 L 68.51 116.5 L 68.33 116.86 L 68.15 117.39 L 68.15 118.29 L 68.33 118.83 L 68.51 119.18 L 68.87 119.54 L 69.22 119.72 L 69.94 119.72 L 70.3 119.54 L 70.66 119.18 L 70.83 118.83 L 71.01 118.29 L 71.01 117.39 L 70.83 116.86 L 70.66 116.5 L 70.3 116.14 L 69.94 115.96 L 69.22 115.96 M 72.19 115.96 L 72.19 119.72 M 72.19 115.96 L 74.7 119.72 M 74.7 115.96 L 74.7 119.72" fill="none" layerid="3"  stroke-linecap="round" stroke-width="0.3937" />			<path  d="M 45.125 115.96 L 44.775 116.14 L 44.415 116.5 L 44.235 116.86 L 44.055 117.39 L 44.055 118.29 L 44.235 118.83 L 44.415 119.18 L 44.775 119.54 L 45.125 119.72 L 45.845 119.72 L 46.205 119.54 L 46.565 119.18 L 46.735 118.83 L 46.915 118.29 L 46.915 117.39 L 46.735 116.86 L 46.565 116.5 L 46.205 116.14 L 45.845 115.96 L 45.125 115.96 M 48.095 115.96 L 48.095 119.72 M 48.095 115.96 L 50.425 115.96 M 48.095 117.75 L 49.535 117.75 M 51.605 115.96 L 51.605 119.72 M 51.605 115.96 L 53.935 115.96 M 51.605 117.75 L 53.035 117.75" fill="none" layerid="3"  stroke-linecap="round" stroke-width="0.3937" />			<path  d="M 69.22 95.881 L 68.87 96.061 L 68.51 96.421 L 68.33 96.781 L 68.15 97.311 L 68.15 98.211 L 68.33 98.751 L 68.51 99.101 L 68.87 99.461 L 69.22 99.641 L 69.94 99.641 L 70.3 99.461 L 70.66 99.101 L 70.83 98.751 L 71.01 98.211 L 71.01 97.311 L 70.83 96.781 L 70.66 96.421 L 70.3 96.061 L 69.94 95.881 L 69.22 95.881 M 72.19 95.881 L 72.19 99.641 M 72.19 95.881 L 74.7 99.641 M 74.7 95.881 L 74.7 99.641" fill="none" layerid="3"  stroke-linecap="round" stroke-width="0.3937" />			<path  d="M 45.125 95.881 L 44.775 96.061 L 44.415 96.421 L 44.235 96.781 L 44.055 97.311 L 44.055 98.211 L 44.235 98.751 L 44.415 99.101 L 44.775 99.461 L 45.125 99.641 L 45.845 99.641 L 46.205 99.461 L 46.565 99.101 L 46.735 98.751 L 46.915 98.211 L 46.915 97.311 L 46.735 96.781 L 46.565 96.421 L 46.205 96.061 L 45.845 95.881 L 45.125 95.881 M 48.095 95.881 L 48.095 99.641 M 48.095 95.881 L 50.425 95.881 M 48.095 97.671 L 49.535 97.671 M 51.605 95.881 L 51.605 99.641 M 51.605 95.881 L 53.935 95.881 M 51.605 97.671 L 53.035 97.671" fill="none" layerid="3"  stroke-linecap="round" stroke-width="0.3937" />			<path  d="M 16.68 88.75 L 16.51 88.39 L 16.15 88.03 L 15.79 87.85 L 15.07 87.85 L 14.72 88.03 L 14.36 88.39 L 14.18 88.75 L 14 89.28 L 14 90.18 L 14.18 90.72 L 14.36 91.07 L 14.72 91.43 L 15.07 91.61 L 15.79 91.61 L 16.15 91.43 L 16.51 91.07 L 16.68 90.72 M 18.94 87.85 L 18.58 88.03 L 18.22 88.39 L 18.04 88.75 L 17.87 89.28 L 17.87 90.18 L 18.04 90.72 L 18.22 91.07 L 18.58 91.43 L 18.94 91.61 L 19.65 91.61 L 20.01 91.43 L 20.37 91.07 L 20.55 90.72 L 20.73 90.18 L 20.73 89.28 L 20.55 88.75 L 20.37 88.39 L 20.01 88.03 L 19.65 87.85 L 18.94 87.85 M 21.91 87.85 L 21.91 91.61 M 21.91 87.85 L 23.34 91.61 M 24.77 87.85 L 23.34 91.61 M 24.77 87.85 L 24.77 91.61" fill="none" layerid="3"  stroke-linecap="round" stroke-width="0.3937" />			<path  d="M 14.5 97.85 L 15.93 101.61 M 17.36 97.85 L 15.93 101.61 M 19.62 97.85 L 19.26 98.03 L 18.9 98.39 L 18.72 98.75 L 18.54 99.28 L 18.54 100.18 L 18.72 100.72 L 18.9 101.07 L 19.26 101.43 L 19.62 101.61 L 20.33 101.61 L 20.69 101.43 L 21.05 101.07 L 21.23 100.72 L 21.41 100.18 L 21.41 99.28 L 21.23 98.75 L 21.05 98.39 L 20.69 98.03 L 20.33 97.85 L 19.62 97.85 M 22.59 97.85 L 22.59 101.61 M 22.59 101.61 L 24.74 101.61" fill="none" layerid="3"  stroke-linecap="round" stroke-width="0.3937" />			<path  d="M 15.93 77.85 L 14.5 81.61 M 15.93 77.85 L 17.36 81.61 M 15.04 80.36 L 16.83 80.36 M 18.54 77.85 L 18.54 81.61 M 18.54 77.85 L 19.98 81.61 M 21.41 77.85 L 19.98 81.61 M 21.41 77.85 L 21.41 81.61 M 22.59 77.85 L 22.59 81.61 M 22.59 77.85 L 24.2 77.85 L 24.74 78.03 L 24.92 78.21 L 25.09 78.57 L 25.09 79.11 L 24.92 79.46 L 24.74 79.64 L 24.2 79.82 L 22.59 79.82" fill="none" layerid="3"  stroke-linecap="round" stroke-width="0.3937" />			<g c_partid="part_pad" c_type="pinpart" layerid="2" c_etype="pinpart">	<polygon  points="70.8 28 69.2 28 69.2 32 70.8 32" stroke-linecap="round" stroke-width="0" /></g>			<g c_partid="part_pad" c_type="pinpart" layerid="2" c_etype="pinpart">	<polygon  points="65.6 28 64 28 64 32 65.6 32" stroke-linecap="round" stroke-width="0" /></g>			<g c_partid="part_pad" c_type="pinpart" layerid="2" c_etype="pinpart">	<polygon  points="68.2 28 66.6 28 66.6 32 68.2 32" stroke-linecap="round" stroke-width="0" /></g>			<g c_partid="part_pad" c_type="pinpart" layerid="2" c_etype="pinpart">	<polygon  points="63 28 61.4 28 61.4 32 63 32" stroke-linecap="round" stroke-width="0" /></g>			<g c_partid="part_pad" c_type="pinpart" layerid="2" c_etype="pinpart">	<polygon  points="65.6 18.4 64 18.4 64 22.4 65.6 22.4" stroke-linecap="round" stroke-width="0" /></g>			<g c_partid="part_pad" c_type="pinpart" layerid="2" c_etype="pinpart">	<polygon  points="63 18.4 61.4 18.4 61.4 22.4 63 22.4" stroke-linecap="round" stroke-width="0" /></g>			<g c_partid="part_pad" c_type="pinpart" layerid="2" c_etype="pinpart">	<polygon  points="68.2 18.4 66.6 18.4 66.6 22.4 68.2 22.4" stroke-linecap="round" stroke-width="0" /></g>			<g c_partid="part_pad" c_type="pinpart" layerid="2" c_etype="pinpart">	<polygon  points="70.8 18.4 69.2 18.4 69.2 22.4 70.8 22.4" stroke-linecap="round" stroke-width="0" /></g>			<path  d="M 67.849 67.851 L 67.849 69.641 L 69.459 69.821 L 69.279 69.641 L 69.109 69.109 L 69.109 68.571 L 69.279 68.031 L 69.64 67.671 L 70.179 67.49 L 70.539 67.49 L 71.069 67.671 L 71.429 68.031 L 71.609 68.571 L 71.609 69.109 L 71.429 69.641 L 71.25 69.821 L 70.89 70 M 67.849 66.311 L 71.609 64.88 M 67.849 63.451 L 71.609 64.88 M 68.39 59.51 L 70 56.651 L 71.609 59.51 M 69.459 55.471 L 69.459 52.25 M 70.539 55.471 L 70.539 52.25 M 67.849 48.311 L 71.609 46.88 M 67.849 45.451 L 71.609 46.88 M 69.64 42.12 L 69.279 42.481 L 69.109 42.83 L 69.109 43.37 L 69.279 43.731 L 69.64 44.091 L 70.179 44.271 L 70.539 44.271 L 71.069 44.091 L 71.429 43.731 L 71.609 43.37 L 71.609 42.83 L 71.429 42.481 L 71.069 42.12 M 69.64 38.791 L 69.279 39.151 L 69.109 39.51 L 69.109 40.041 L 69.279 40.401 L 69.64 40.76 L 70.179 40.941 L 70.539 40.941 L 71.069 40.76 L 71.429 40.401 L 71.609 40.041 L 71.609 39.51 L 71.429 39.151 L 71.069 38.791 M 68.39 34.851 L 70 31.99 L 71.609 34.851 M 69.459 30.811 L 69.459 27.591 M 70.539 30.811 L 70.539 27.591 M 67.849 23.291 L 67.849 21.32 L 69.279 22.401 L 69.279 21.859 L 69.459 21.5 L 69.64 21.32 L 70.179 21.151 L 70.539 21.151 L 71.069 21.32 L 71.429 21.68 L 71.609 22.221 L 71.609 22.76 L 71.429 23.291 L 71.25 23.471 L 70.89 23.651 M 70.719 19.791 L 70.89 19.961 L 71.069 19.791 L 70.89 19.609 L 70.719 19.791 M 67.849 18.07 L 67.849 16.101 L 69.279 17.171 L 69.279 16.641 L 69.459 16.281 L 69.64 16.101 L 70.179 15.921 L 70.539 15.921 L 71.069 16.101 L 71.429 16.461 L 71.609 16.99 L 71.609 17.531 L 71.429 18.07 L 71.25 18.25 L 70.89 18.43 M 67.849 14.74 L 71.609 13.31 M 67.849 11.88 L 71.609 13.31" fill="none" layerid="3"  stroke-linecap="round" stroke-width="0.3937" />			<g c_partid="part_pad" c_type="pinpart" layerid="11" c_etype="pinpart">	<polygon  points="37.008 57.008 42.992 57.008 42.992 62.992 37.008 62.992" stroke-linecap="round" stroke-width="0" />	<circle cx="40" cy="60" r="1.791335" stroke-width="0" /></g>			<g c_partid="part_pad" c_type="pinpart" layerid="11" c_etype="pinpart">	<ellipse  xmlns="http://www.w3.org/2000/svg" cx="40" cy="50" rx="3" ry="3" stroke-width="0"  />	<circle cx="40" cy="50" r="1.8" stroke-width="0" /></g>			<g c_partid="part_pad" c_type="pinpart" layerid="11" c_etype="pinpart">	<ellipse  xmlns="http://www.w3.org/2000/svg" cx="40" cy="40" rx="3" ry="3" stroke-width="0"  />	<circle cx="40" cy="40" r="1.8" stroke-width="0" /></g>			<g c_partid="part_pad" c_type="pinpart" layerid="11" c_etype="pinpart">	<ellipse  xmlns="http://www.w3.org/2000/svg" cx="40" cy="30" rx="3" ry="3" stroke-width="0"  />	<circle cx="40" cy="30" r="1.8" stroke-width="0" /></g>			<g c_partid="part_pad" c_type="pinpart" layerid="11" c_etype="pinpart">	<ellipse  xmlns="http://www.w3.org/2000/svg" cx="40" cy="20" rx="3" ry="3" stroke-width="0"  />	<circle cx="40" cy="20" r="1.8" stroke-width="0" /></g>			<g c_partid="part_pad" c_type="pinpart" layerid="11" c_etype="pinpart">	<ellipse  xmlns="http://www.w3.org/2000/svg" cx="40" cy="10" rx="3" ry="3" stroke-width="0"  />	<circle cx="40" cy="10" r="1.8" stroke-width="0" /></g>			<g c_partid="part_via" c_type="pinpart" layerid="11"  c_etype="pinpart">
	<circle  xmlns="http://www.w3.org/2000/svg" cx="65" cy="10" r="1.6" stroke-width="0" stroke="none" />	<circle cx="65" cy="10" r="0.8" stroke-width="0" stroke="none"/>
	</g>			<g c_partid="part_pad" c_type="pinpart" layerid="11" c_etype="pinpart">	<ellipse  xmlns="http://www.w3.org/2000/svg" cx="20" cy="20" rx="3" ry="3" stroke-width="0"  />	<circle cx="20" cy="20" r="1.8" stroke-width="0" /></g>			<g c_partid="part_pad" c_type="pinpart" layerid="11" c_etype="pinpart">	<ellipse  xmlns="http://www.w3.org/2000/svg" cx="20" cy="60" rx="3" ry="3" stroke-width="0"  />	<circle cx="20" cy="60" r="1.8" stroke-width="0" /></g>			<g c_partid="part_pad" c_type="pinpart" layerid="11" c_etype="pinpart">	<ellipse  xmlns="http://www.w3.org/2000/svg" cx="10" cy="90" rx="2.99212" ry="2.99212" stroke-width="0"  />	<circle cx="10" cy="90" r="1.791335" stroke-width="0" /></g>			<g c_partid="part_pad" c_type="pinpart" layerid="11" c_etype="pinpart">	<ellipse  xmlns="http://www.w3.org/2000/svg" cx="10" cy="80" rx="3" ry="3" stroke-width="0"  />	<circle cx="10" cy="80" r="1.8" stroke-width="0" /></g>			<g c_partid="part_pad" c_type="pinpart" layerid="11" c_etype="pinpart">	<ellipse  xmlns="http://www.w3.org/2000/svg" cx="60" cy="90" rx="3" ry="3" stroke-width="0"  />	<circle cx="60" cy="90" r="1.8" stroke-width="0" /></g>			<g c_partid="part_pad" c_type="pinpart" layerid="11" c_etype="pinpart">	<ellipse  xmlns="http://www.w3.org/2000/svg" cx="60" cy="110" rx="3" ry="3" stroke-width="0"  />	<circle cx="60" cy="110" r="1.8" stroke-width="0" /></g>			<g c_partid="part_pad" c_type="pinpart" layerid="11" c_etype="pinpart">	<polygon  points="47 87 53 87 53 93 47 93" stroke-linecap="round" stroke-width="0" />	<circle cx="50" cy="90" r="1.8" stroke-width="0" /></g>			<g c_partid="part_pad" c_type="pinpart" layerid="11" c_etype="pinpart">	<polygon  points="47 107 53 107 53 113 47 113" stroke-linecap="round" stroke-width="0" />	<circle cx="50" cy="110" r="1.8" stroke-width="0" /></g>			<g c_partid="part_pad" c_type="pinpart" layerid="11" c_etype="pinpart">	<ellipse  xmlns="http://www.w3.org/2000/svg" cx="70" cy="110" rx="2.99212" ry="2.99212" stroke-width="0"  />	<circle cx="70" cy="110" r="1.791335" stroke-width="0" /></g>			<g c_partid="part_pad" c_type="pinpart" layerid="11" c_etype="pinpart">	<ellipse  xmlns="http://www.w3.org/2000/svg" cx="70" cy="90" rx="2.99212" ry="2.99212" stroke-width="0"  />	<circle cx="70" cy="90" r="1.791335" stroke-width="0" /></g>			<g c_partid="part_pad" c_type="pinpart" layerid="11" c_etype="pinpart">	<ellipse  xmlns="http://www.w3.org/2000/svg" cx="10" cy="100" rx="2.99212" ry="2.99212" stroke-width="0"  />	<circle cx="10" cy="100" r="1.791335" stroke-width="0" /></g>			<g c_partid="part_pad" c_type="pinpart" layerid="11" c_etype="pinpart">	<ellipse  xmlns="http://www.w3.org/2000/svg" cx="30" cy="90" rx="2.99212" ry="2.99212" stroke-width="0"  />	<circle cx="30" cy="90" r="1.791335" stroke-width="0" /></g>			<g c_partid="part_pad" c_type="pinpart" layerid="11" c_etype="pinpart">	<ellipse  xmlns="http://www.w3.org/2000/svg" cx="30" cy="80" rx="3" ry="3" stroke-width="0"  />	<circle cx="30" cy="80" r="1.8" stroke-width="0" /></g>			<g c_partid="part_pad" c_type="pinpart" layerid="11" c_etype="pinpart">	<ellipse  xmlns="http://www.w3.org/2000/svg" cx="30" cy="100" rx="2.99212" ry="2.99212" stroke-width="0"  />	<circle cx="30" cy="100" r="1.791335" stroke-width="0" /></g>			<g c_partid="part_via" c_type="pinpart" layerid="11"  c_etype="pinpart">
	<circle  xmlns="http://www.w3.org/2000/svg" cx="20" cy="70" r="1.6" stroke-width="0" stroke="none" />	<circle cx="20" cy="70" r="0.8" stroke-width="0" stroke="none"/>
	</g></g></svg>