solid d060697-rpi-case
facet normal 0.0 0.0 -1.0
  outer loop
    vertex 80.0 83.0 0.0
    vertex 0.0 0.0 0.0
    vertex 0.0 83.0 0.0
  endloop
endfacet
facet normal 0.0 0.0 -1.0
  outer loop
    vertex 0.0 0.0 0.0
    vertex 80.0 83.0 0.0
    vertex 80.0 0.0 0.0
  endloop
endfacet
facet normal -1.2296154423364135e-21 -1.0 1.5273382281232058e-21
  outer loop
    vertex 80.0 0.0 0.0
    vertex 76.5 0.0 0.9999999999999999
    vertex 0.0 0.0 0.0
  endloop
endfacet
facet normal -1.2296154423364135e-21 -1.0 1.5273382281232058e-21
  outer loop
    vertex 76.5 0.0 0.9999999999999999
    vertex 80.0 0.0 0.0
    vertex 80.0 0.0 24.0
  endloop
endfacet
facet normal -1.2296154423364135e-21 -1.0 1.5273382281232058e-21
  outer loop
    vertex 76.5 0.0 0.9999999999999999
    vertex 80.0 0.0 24.0
    vertex 76.5 0.0 5.499999999999998
  endloop
endfacet
facet normal -1.2296154423364135e-21 -1.0 1.5273382281232058e-21
  outer loop
    vertex 76.5 0.0 5.499999999999998
    vertex 80.0 0.0 24.0
    vertex 76.0 0.0 5.499999999999998
  endloop
endfacet
facet normal -1.2296154423364135e-21 -1.0 1.5273382281232058e-21
  outer loop
    vertex 76.0 0.0 5.499999999999998
    vertex 80.0 0.0 24.0
    vertex 76.0 0.0 24.0
  endloop
endfacet
facet normal -1.2296154423364135e-21 -1.0 1.5273382281232058e-21
  outer loop
    vertex 5.000000000000002 1.4955796749672715e-17 24.0
    vertex 4.5 1.342356598678773e-19 5.499999999999998
    vertex 5.0 1.4821561089804838e-17 5.499999999999998
  endloop
endfacet
facet normal -1.2296154423364135e-21 -1.0 1.5273382281232058e-21
  outer loop
    vertex 4.500000000000003 2.684713197357546e-19 1.0
    vertex 1.0000000000000024 0.0 0.9999999999999999
    vertex 76.5 0.0 0.9999999999999999
  endloop
endfacet
facet normal -1.2296154423364135e-21 -1.0 1.5273382281232058e-21
  outer loop
    vertex 1.0000000000000024 0.0 0.9999999999999999
    vertex 4.500000000000003 2.684713197357546e-19 1.0
    vertex 1.0000000000000024 0.0 24.0
  endloop
endfacet
facet normal -1.2296154423364135e-21 -1.0 1.5273382281232058e-21
  outer loop
    vertex 1.0000000000000024 0.0 24.0
    vertex 4.500000000000003 2.684713197357546e-19 1.0
    vertex 4.5 1.342356598678773e-19 5.499999999999998
  endloop
endfacet
facet normal -1.2296154423364135e-21 -1.0 1.5273382281232058e-21
  outer loop
    vertex 1.0000000000000024 0.0 24.0
    vertex 4.5 1.342356598678773e-19 5.499999999999998
    vertex 5.000000000000002 1.4955796749672715e-17 24.0
  endloop
endfacet
facet normal -1.2296154423364135e-21 -1.0 1.5273382281232058e-21
  outer loop
    vertex 76.5 0.0 0.9999999999999999
    vertex 0.0 0.0 0.9999999999999999
    vertex 0.0 0.0 0.0
  endloop
endfacet
facet normal -1.2296154423364135e-21 -1.0 1.5273382281232058e-21
  outer loop
    vertex 0.0 0.0 0.9999999999999999
    vertex 76.5 0.0 0.9999999999999999
    vertex 1.0000000000000024 0.0 0.9999999999999999
  endloop
endfacet
facet normal -1.0 0.0 0.0
  outer loop
    vertex 0.0 83.0 0.9999999999999999
    vertex 0.0 0.0 0.0
    vertex 0.0 0.0 0.9999999999999999
  endloop
endfacet
facet normal -1.0 0.0 0.0
  outer loop
    vertex 0.0 0.0 0.0
    vertex 0.0 83.0 0.9999999999999999
    vertex 0.0 83.0 0.0
  endloop
endfacet
facet normal -0.0 -0.0 1.0
  outer loop
    vertex 1.0000000000000024 0.0 0.9999999999999999
    vertex 0.0 83.0 0.9999999999999999
    vertex 0.0 0.0 0.9999999999999999
  endloop
endfacet
facet normal -0.0 -0.0 1.0
  outer loop
    vertex 0.0 83.0 0.9999999999999999
    vertex 1.0000000000000024 0.0 0.9999999999999999
    vertex 1.0000000000000024 83.0 0.9999999999999999
  endloop
endfacet
facet normal 1.0 -0.0 -0.0
  outer loop
    vertex 80.0 0.0 0.0
    vertex 80.0 31.589999999999993 14.000000000000002
    vertex 80.0 0.0 24.0
  endloop
endfacet
facet normal 1.0 -0.0 -0.0
  outer loop
    vertex 80.0 31.589999999999993 14.000000000000002
    vertex 80.0 0.0 0.0
    vertex 80.0 83.0 0.0
  endloop
endfacet
facet normal 1.0 -0.0 -0.0
  outer loop
    vertex 80.0 31.589999999999993 14.000000000000002
    vertex 80.0 83.0 0.0
    vertex 80.0 52.41000000000001 14.000000000000002
  endloop
endfacet
facet normal 1.0 -0.0 -0.0
  outer loop
    vertex 80.0 52.41000000000001 14.000000000000002
    vertex 80.0 83.0 0.0
    vertex 80.0 52.41000000000001 24.0
  endloop
endfacet
facet normal 1.0 -0.0 -0.0
  outer loop
    vertex 80.0 52.41000000000001 24.0
    vertex 80.0 83.0 0.0
    vertex 80.0 83.0 24.0
  endloop
endfacet
facet normal 1.0 -0.0 -0.0
  outer loop
    vertex 80.0 31.589999999999993 24.0
    vertex 80.0 0.0 24.0
    vertex 80.0 31.589999999999993 14.000000000000002
  endloop
endfacet
facet normal -0.0 -0.0 1.0
  outer loop
    vertex 5.000000000000002 1.4955796749672715e-17 24.0
    vertex 1.0000000000000024 83.0 24.0
    vertex 1.0000000000000024 0.0 24.0
  endloop
endfacet
facet normal -0.0 -0.0 1.0
  outer loop
    vertex 1.0000000000000024 83.0 24.0
    vertex 5.000000000000002 1.4955796749672715e-17 24.0
    vertex 5.000000000000002 83.0 24.0
  endloop
endfacet
facet normal -1.0 -0.0 -0.0
  outer loop
    vertex 1.0000000000000024 83.0 24.0
    vertex 1.0000000000000024 0.0 0.9999999999999999
    vertex 1.0000000000000024 0.0 24.0
  endloop
endfacet
facet normal -1.0 -0.0 -0.0
  outer loop
    vertex 1.0000000000000024 0.0 0.9999999999999999
    vertex 1.0000000000000024 83.0 24.0
    vertex 1.0000000000000024 83.0 0.9999999999999999
  endloop
endfacet
facet normal -0.0 -0.0 1.0
  outer loop
    vertex 4.500000000000003 2.684713197357546e-19 1.0
    vertex 76.5 2.15 0.9999999999999999
    vertex 4.499999999999991 2.15 1.0
  endloop
endfacet
facet normal -0.0 -0.0 1.0
  outer loop
    vertex 76.5 2.15 0.9999999999999999
    vertex 4.500000000000003 2.684713197357546e-19 1.0
    vertex 76.5 0.0 0.9999999999999999
  endloop
endfacet
facet normal 0.0 0.0 1.0
  outer loop
    vertex 76.5 2.15 3.5
    vertex 4.499999999999991 4.1499999999999995 3.5
    vertex 4.499999999999991 2.15 3.5
  endloop
endfacet
facet normal 0.0 0.0 1.0
  outer loop
    vertex 4.499999999999991 4.1499999999999995 3.5
    vertex 76.5 2.15 3.5
    vertex 76.5 4.1499999999999995 3.5
  endloop
endfacet
facet normal 0.0 -1.0 0.0
  outer loop
    vertex 76.5 2.15 3.5
    vertex 4.499999999999991 2.15 1.0
    vertex 76.5 2.15 0.9999999999999999
  endloop
endfacet
facet normal 0.0 -1.0 0.0
  outer loop
    vertex 4.499999999999991 2.15 1.0
    vertex 76.5 2.15 3.5
    vertex 4.499999999999991 2.15 3.5
  endloop
endfacet
facet normal 0.0 1.0 0.0
  outer loop
    vertex 4.499999999999991 4.1499999999999995 1.0
    vertex 76.5 4.1499999999999995 3.5
    vertex 76.5 4.1499999999999995 0.9999999999999999
  endloop
endfacet
facet normal 0.0 1.0 0.0
  outer loop
    vertex 76.5 4.1499999999999995 3.5
    vertex 4.499999999999991 4.1499999999999995 1.0
    vertex 4.499999999999991 4.1499999999999995 3.5
  endloop
endfacet
facet normal 0.0 0.0 1.0
  outer loop
    vertex 76.5 78.85000000000001 3.5
    vertex 4.499999999999991 80.85000000000001 3.5
    vertex 4.499999999999991 78.85000000000001 3.5
  endloop
endfacet
facet normal 0.0 0.0 1.0
  outer loop
    vertex 4.499999999999991 80.85000000000001 3.5
    vertex 76.5 78.85000000000001 3.5
    vertex 76.5 80.85000000000001 3.5
  endloop
endfacet
facet normal -0.0 1.0 -0.0
  outer loop
    vertex 4.499999999999991 80.85000000000001 1.0
    vertex 76.5 80.85000000000001 3.5
    vertex 76.5 80.85000000000001 0.9999999999999999
  endloop
endfacet
facet normal -0.0 1.0 -0.0
  outer loop
    vertex 76.5 80.85000000000001 3.5
    vertex 4.499999999999991 80.85000000000001 1.0
    vertex 4.499999999999991 80.85000000000001 3.5
  endloop
endfacet
facet normal 0.0 -1.0 0.0
  outer loop
    vertex 76.5 78.85000000000001 3.5
    vertex 4.499999999999991 78.85000000000001 1.0
    vertex 76.5 78.85000000000001 0.9999999999999999
  endloop
endfacet
facet normal 0.0 -1.0 0.0
  outer loop
    vertex 4.499999999999991 78.85000000000001 1.0
    vertex 76.5 78.85000000000001 3.5
    vertex 4.499999999999991 78.85000000000001 3.5
  endloop
endfacet
facet normal 0.0 1.0 0.0
  outer loop
    vertex 1.0000000000000024 83.0 0.9999999999999999
    vertex 4.500000000000003 83.0 1.0
    vertex 76.5 83.0 0.9999999999999999
  endloop
endfacet
facet normal 0.0 1.0 0.0
  outer loop
    vertex 4.500000000000003 83.0 1.0
    vertex 1.0000000000000024 83.0 0.9999999999999999
    vertex 1.0000000000000024 83.0 24.0
  endloop
endfacet
facet normal 0.0 1.0 0.0
  outer loop
    vertex 4.500000000000003 83.0 1.0
    vertex 1.0000000000000024 83.0 24.0
    vertex 4.499999999999996 83.0 5.499999999999998
  endloop
endfacet
facet normal 0.0 1.0 0.0
  outer loop
    vertex 4.499999999999996 83.0 5.499999999999998
    vertex 1.0000000000000024 83.0 24.0
    vertex 4.999999999999995 83.0 5.499999999999998
  endloop
endfacet
facet normal 0.0 1.0 0.0
  outer loop
    vertex 4.999999999999995 83.0 5.499999999999998
    vertex 1.0000000000000024 83.0 24.0
    vertex 5.000000000000002 83.0 24.0
  endloop
endfacet
facet normal 0.0 1.0 0.0
  outer loop
    vertex 76.0 83.0 24.0
    vertex 76.5 83.0 5.499999999999998
    vertex 76.0 83.0 5.499999999999998
  endloop
endfacet
facet normal 0.0 1.0 0.0
  outer loop
    vertex 0.0 83.0 0.9999999999999999
    vertex 80.0 83.0 0.0
    vertex 0.0 83.0 0.0
  endloop
endfacet
facet normal 0.0 1.0 0.0
  outer loop
    vertex 80.0 83.0 0.0
    vertex 0.0 83.0 0.9999999999999999
    vertex 76.5 83.0 0.9999999999999999
  endloop
endfacet
facet normal 0.0 1.0 0.0
  outer loop
    vertex 80.0 83.0 0.0
    vertex 76.5 83.0 0.9999999999999999
    vertex 80.0 83.0 24.0
  endloop
endfacet
facet normal 0.0 1.0 0.0
  outer loop
    vertex 76.5 83.0 0.9999999999999999
    vertex 0.0 83.0 0.9999999999999999
    vertex 1.0000000000000024 83.0 0.9999999999999999
  endloop
endfacet
facet normal 0.0 1.0 0.0
  outer loop
    vertex 80.0 83.0 24.0
    vertex 76.5 83.0 0.9999999999999999
    vertex 76.5 83.0 5.499999999999998
  endloop
endfacet
facet normal 0.0 1.0 0.0
  outer loop
    vertex 80.0 83.0 24.0
    vertex 76.5 83.0 5.499999999999998
    vertex 76.0 83.0 24.0
  endloop
endfacet
facet normal -0.0 -0.0 1.0
  outer loop
    vertex 76.5 4.1499999999999995 0.9999999999999999
    vertex 4.499999999999991 78.85000000000001 1.0
    vertex 4.499999999999991 4.1499999999999995 1.0
  endloop
endfacet
facet normal -0.0 -0.0 1.0
  outer loop
    vertex 4.499999999999991 78.85000000000001 1.0
    vertex 76.5 4.1499999999999995 0.9999999999999999
    vertex 72.18397459621556 11.09 0.9999999999999999
  endloop
endfacet
facet normal -0.0 -0.0 1.0
  outer loop
    vertex 4.499999999999991 78.85000000000001 1.0
    vertex 72.18397459621556 11.09 0.9999999999999999
    vertex 72.08407417371092 11.33118095489748 0.9999999999999999
  endloop
endfacet
facet normal -0.0 -0.0 1.0
  outer loop
    vertex 4.499999999999991 78.85000000000001 1.0
    vertex 72.08407417371092 11.33118095489748 0.9999999999999999
    vertex 72.05 11.590000000000002 0.9999999999999999
  endloop
endfacet
facet normal -0.0 -0.0 1.0
  outer loop
    vertex 72.18397459621556 11.09 0.9999999999999999
    vertex 76.5 4.1499999999999995 0.9999999999999999
    vertex 72.34289321881344 10.882893218813454 0.9999999999999999
  endloop
endfacet
facet normal -0.0 -0.0 1.0
  outer loop
    vertex 72.34289321881344 10.882893218813454 0.9999999999999999
    vertex 76.5 4.1499999999999995 0.9999999999999999
    vertex 72.55 10.723974596215564 0.9999999999999999
  endloop
endfacet
facet normal -0.0 -0.0 1.0
  outer loop
    vertex 72.55 10.723974596215564 0.9999999999999999
    vertex 76.5 4.1499999999999995 0.9999999999999999
    vertex 72.79118095489747 10.624074173710934 0.9999999999999999
  endloop
endfacet
facet normal -0.0 -0.0 1.0
  outer loop
    vertex 72.79118095489747 10.624074173710934 0.9999999999999999
    vertex 76.5 4.1499999999999995 0.9999999999999999
    vertex 73.05 10.590000000000002 0.9999999999999999
  endloop
endfacet
facet normal -0.0 -0.0 1.0
  outer loop
    vertex 73.05 10.590000000000002 0.9999999999999999
    vertex 76.5 4.1499999999999995 0.9999999999999999
    vertex 73.30881904510251 10.624074173710934 0.9999999999999999
  endloop
endfacet
facet normal -0.0 -0.0 1.0
  outer loop
    vertex 73.30881904510251 10.624074173710934 0.9999999999999999
    vertex 76.5 4.1499999999999995 0.9999999999999999
    vertex 73.54999999999998 10.723974596215564 0.9999999999999999
  endloop
endfacet
facet normal -0.0 -0.0 1.0
  outer loop
    vertex 73.54999999999998 10.723974596215564 0.9999999999999999
    vertex 76.5 4.1499999999999995 0.9999999999999999
    vertex 73.75710678118654 10.882893218813454 0.9999999999999999
  endloop
endfacet
facet normal -0.0 -0.0 1.0
  outer loop
    vertex 73.75710678118654 10.882893218813454 0.9999999999999999
    vertex 76.5 4.1499999999999995 0.9999999999999999
    vertex 73.91602540378442 11.090000000000002 0.9999999999999999
  endloop
endfacet
facet normal -0.0 -0.0 1.0
  outer loop
    vertex 73.91602540378442 11.090000000000002 0.9999999999999999
    vertex 76.5 4.1499999999999995 0.9999999999999999
    vertex 74.01592582628906 11.331180954897482 0.9999999999999999
  endloop
endfacet
facet normal -0.0 -0.0 1.0
  outer loop
    vertex 74.01592582628906 11.331180954897482 0.9999999999999999
    vertex 76.5 4.1499999999999995 0.9999999999999999
    vertex 74.04999999999998 11.590000000000002 0.9999999999999999
  endloop
endfacet
facet normal -0.0 -0.0 1.0
  outer loop
    vertex 74.04999999999998 11.590000000000002 0.9999999999999999
    vertex 76.5 4.1499999999999995 0.9999999999999999
    vertex 74.04999999999998 72.41000000000001 0.9999999999999999
  endloop
endfacet
facet normal -0.0 -0.0 1.0
  outer loop
    vertex 4.499999999999991 78.85000000000001 1.0
    vertex 72.18397459621556 72.91000000000001 0.9999999999999999
    vertex 76.5 78.85000000000001 0.9999999999999999
  endloop
endfacet
facet normal -0.0 -0.0 1.0
  outer loop
    vertex 72.18397459621556 72.91000000000001 0.9999999999999999
    vertex 4.499999999999991 78.85000000000001 1.0
    vertex 72.08407417371092 72.66881904510252 0.9999999999999999
  endloop
endfacet
facet normal -0.0 -0.0 1.0
  outer loop
    vertex 72.08407417371092 72.66881904510252 0.9999999999999999
    vertex 4.499999999999991 78.85000000000001 1.0
    vertex 72.05 72.41000000000001 0.9999999999999999
  endloop
endfacet
facet normal -0.0 -0.0 1.0
  outer loop
    vertex 72.05 72.41000000000001 0.9999999999999999
    vertex 4.499999999999991 78.85000000000001 1.0
    vertex 72.05 11.590000000000002 0.9999999999999999
  endloop
endfacet
facet normal -0.0 -0.0 1.0
  outer loop
    vertex 76.5 78.85000000000001 0.9999999999999999
    vertex 72.18397459621556 72.91000000000001 0.9999999999999999
    vertex 72.34289321881344 73.11710678118655 0.9999999999999999
  endloop
endfacet
facet normal -0.0 -0.0 1.0
  outer loop
    vertex 76.5 78.85000000000001 0.9999999999999999
    vertex 72.34289321881344 73.11710678118655 0.9999999999999999
    vertex 72.55 73.27602540378444 0.9999999999999999
  endloop
endfacet
facet normal -0.0 -0.0 1.0
  outer loop
    vertex 76.5 78.85000000000001 0.9999999999999999
    vertex 72.55 73.27602540378444 0.9999999999999999
    vertex 72.79118095489747 73.37592582628906 0.9999999999999999
  endloop
endfacet
facet normal -0.0 -0.0 1.0
  outer loop
    vertex 76.5 78.85000000000001 0.9999999999999999
    vertex 72.79118095489747 73.37592582628906 0.9999999999999999
    vertex 73.05 73.41000000000001 0.9999999999999999
  endloop
endfacet
facet normal -0.0 -0.0 1.0
  outer loop
    vertex 76.5 78.85000000000001 0.9999999999999999
    vertex 73.05 73.41000000000001 0.9999999999999999
    vertex 73.30881904510251 73.37592582628908 0.9999999999999999
  endloop
endfacet
facet normal -0.0 -0.0 1.0
  outer loop
    vertex 76.5 78.85000000000001 0.9999999999999999
    vertex 73.30881904510251 73.37592582628908 0.9999999999999999
    vertex 73.54999999999998 73.27602540378444 0.9999999999999999
  endloop
endfacet
facet normal -0.0 -0.0 1.0
  outer loop
    vertex 76.5 78.85000000000001 0.9999999999999999
    vertex 73.54999999999998 73.27602540378444 0.9999999999999999
    vertex 73.75710678118654 73.11710678118655 0.9999999999999999
  endloop
endfacet
facet normal -0.0 -0.0 1.0
  outer loop
    vertex 76.5 78.85000000000001 0.9999999999999999
    vertex 73.75710678118654 73.11710678118655 0.9999999999999999
    vertex 73.91602540378442 72.91000000000001 0.9999999999999999
  endloop
endfacet
facet normal -0.0 -0.0 1.0
  outer loop
    vertex 76.5 78.85000000000001 0.9999999999999999
    vertex 73.91602540378442 72.91000000000001 0.9999999999999999
    vertex 74.01592582628905 72.66881904510252 0.9999999999999999
  endloop
endfacet
facet normal -0.0 -0.0 1.0
  outer loop
    vertex 76.5 78.85000000000001 0.9999999999999999
    vertex 74.01592582628905 72.66881904510252 0.9999999999999999
    vertex 74.04999999999998 72.41000000000001 0.9999999999999999
  endloop
endfacet
facet normal -0.0 -0.0 1.0
  outer loop
    vertex 76.5 78.85000000000001 0.9999999999999999
    vertex 74.04999999999998 72.41000000000001 0.9999999999999999
    vertex 76.5 4.1499999999999995 0.9999999999999999
  endloop
endfacet
facet normal -0.0 -0.0 1.0
  outer loop
    vertex 72.08407417371092 11.848819045102521 0.9999999999999999
    vertex 72.05 72.41000000000001 0.9999999999999999
    vertex 72.05 11.590000000000002 0.9999999999999999
  endloop
endfacet
facet normal -0.0 -0.0 1.0
  outer loop
    vertex 72.05 72.41000000000001 0.9999999999999999
    vertex 72.08407417371092 11.848819045102521 0.9999999999999999
    vertex 72.08407417371093 72.15118095489748 0.9999999999999999
  endloop
endfacet
facet normal -0.0 -0.0 1.0
  outer loop
    vertex 72.08407417371093 72.15118095489748 0.9999999999999999
    vertex 72.08407417371092 11.848819045102521 0.9999999999999999
    vertex 72.18397459621556 12.09 0.9999999999999999
  endloop
endfacet
facet normal -0.0 -0.0 1.0
  outer loop
    vertex 72.08407417371093 72.15118095489748 0.9999999999999999
    vertex 72.18397459621556 12.09 0.9999999999999999
    vertex 72.18397459621556 71.91000000000001 0.9999999999999999
  endloop
endfacet
facet normal -0.0 -0.0 1.0
  outer loop
    vertex 72.18397459621556 71.91000000000001 0.9999999999999999
    vertex 72.18397459621556 12.09 0.9999999999999999
    vertex 72.34289321881344 12.29710678118655 0.9999999999999999
  endloop
endfacet
facet normal -0.0 -0.0 1.0
  outer loop
    vertex 72.18397459621556 71.91000000000001 0.9999999999999999
    vertex 72.34289321881344 12.29710678118655 0.9999999999999999
    vertex 72.34289321881344 71.70289321881346 0.9999999999999999
  endloop
endfacet
facet normal -0.0 -0.0 1.0
  outer loop
    vertex 72.34289321881344 71.70289321881346 0.9999999999999999
    vertex 72.34289321881344 12.29710678118655 0.9999999999999999
    vertex 72.55 12.45602540378444 0.9999999999999999
  endloop
endfacet
facet normal -0.0 -0.0 1.0
  outer loop
    vertex 72.34289321881344 71.70289321881346 0.9999999999999999
    vertex 72.55 12.45602540378444 0.9999999999999999
    vertex 72.55 71.54397459621558 0.9999999999999999
  endloop
endfacet
facet normal -0.0 -0.0 1.0
  outer loop
    vertex 72.55 71.54397459621558 0.9999999999999999
    vertex 72.55 12.45602540378444 0.9999999999999999
    vertex 72.79118095489747 12.55592582628907 0.9999999999999999
  endloop
endfacet
facet normal -0.0 -0.0 1.0
  outer loop
    vertex 72.55 71.54397459621558 0.9999999999999999
    vertex 72.79118095489747 12.55592582628907 0.9999999999999999
    vertex 72.79118095489747 71.44407417371093 0.9999999999999999
  endloop
endfacet
facet normal -0.0 -0.0 1.0
  outer loop
    vertex 72.79118095489747 71.44407417371093 0.9999999999999999
    vertex 72.79118095489747 12.55592582628907 0.9999999999999999
    vertex 73.05 12.59 0.9999999999999999
  endloop
endfacet
facet normal -0.0 -0.0 1.0
  outer loop
    vertex 72.79118095489747 71.44407417371093 0.9999999999999999
    vertex 73.05 12.59 0.9999999999999999
    vertex 73.05 71.41000000000001 0.9999999999999999
  endloop
endfacet
facet normal -0.0 -0.0 1.0
  outer loop
    vertex 73.05 71.41000000000001 0.9999999999999999
    vertex 73.05 12.59 0.9999999999999999
    vertex 73.30881904510251 12.55592582628907 0.9999999999999999
  endloop
endfacet
facet normal -0.0 -0.0 1.0
  outer loop
    vertex 73.05 71.41000000000001 0.9999999999999999
    vertex 73.30881904510251 12.55592582628907 0.9999999999999999
    vertex 73.30881904510251 71.44407417371093 0.9999999999999999
  endloop
endfacet
facet normal -0.0 -0.0 1.0
  outer loop
    vertex 73.30881904510251 71.44407417371093 0.9999999999999999
    vertex 73.30881904510251 12.55592582628907 0.9999999999999999
    vertex 73.54999999999998 12.45602540378444 0.9999999999999999
  endloop
endfacet
facet normal -0.0 -0.0 1.0
  outer loop
    vertex 73.30881904510251 71.44407417371093 0.9999999999999999
    vertex 73.54999999999998 12.45602540378444 0.9999999999999999
    vertex 73.54999999999998 71.54397459621558 0.9999999999999999
  endloop
endfacet
facet normal -0.0 -0.0 1.0
  outer loop
    vertex 73.54999999999998 71.54397459621558 0.9999999999999999
    vertex 73.54999999999998 12.45602540378444 0.9999999999999999
    vertex 73.75710678118654 12.29710678118655 0.9999999999999999
  endloop
endfacet
facet normal -0.0 -0.0 1.0
  outer loop
    vertex 73.54999999999998 71.54397459621558 0.9999999999999999
    vertex 73.75710678118654 12.29710678118655 0.9999999999999999
    vertex 73.75710678118654 71.70289321881346 0.9999999999999999
  endloop
endfacet
facet normal -0.0 -0.0 1.0
  outer loop
    vertex 73.75710678118654 71.70289321881346 0.9999999999999999
    vertex 73.75710678118654 12.29710678118655 0.9999999999999999
    vertex 73.91602540378442 12.090000000000002 0.9999999999999999
  endloop
endfacet
facet normal -0.0 -0.0 1.0
  outer loop
    vertex 73.75710678118654 71.70289321881346 0.9999999999999999
    vertex 73.91602540378442 12.090000000000002 0.9999999999999999
    vertex 73.91602540378442 71.91000000000001 0.9999999999999999
  endloop
endfacet
facet normal -0.0 -0.0 1.0
  outer loop
    vertex 73.91602540378442 71.91000000000001 0.9999999999999999
    vertex 73.91602540378442 12.090000000000002 0.9999999999999999
    vertex 74.01592582628906 11.848819045102523 0.9999999999999999
  endloop
endfacet
facet normal -0.0 -0.0 1.0
  outer loop
    vertex 73.91602540378442 71.91000000000001 0.9999999999999999
    vertex 74.01592582628906 11.848819045102523 0.9999999999999999
    vertex 74.01592582628906 72.15118095489748 0.9999999999999999
  endloop
endfacet
facet normal -0.0 -0.0 1.0
  outer loop
    vertex 74.01592582628906 72.15118095489748 0.9999999999999999
    vertex 74.01592582628906 11.848819045102523 0.9999999999999999
    vertex 74.04999999999998 11.590000000000002 0.9999999999999999
  endloop
endfacet
facet normal -0.0 -0.0 1.0
  outer loop
    vertex 74.01592582628906 72.15118095489748 0.9999999999999999
    vertex 74.04999999999998 11.590000000000002 0.9999999999999999
    vertex 74.04999999999998 72.41000000000001 0.9999999999999999
  endloop
endfacet
facet normal -0.0 -0.0 1.0
  outer loop
    vertex 76.5 80.85000000000001 0.9999999999999999
    vertex 4.500000000000003 83.0 1.0
    vertex 4.499999999999991 80.85000000000001 1.0
  endloop
endfacet
facet normal -0.0 -0.0 1.0
  outer loop
    vertex 4.500000000000003 83.0 1.0
    vertex 76.5 80.85000000000001 0.9999999999999999
    vertex 76.5 83.0 0.9999999999999999
  endloop
endfacet
facet normal 0.0 0.0 1.0
  outer loop
    vertex 72.08407417371093 72.15118095489748 7.999999999999999
    vertex 72.08407417371092 72.66881904510252 7.999999999999999
    vertex 72.05 72.41000000000001 7.999999999999999
  endloop
endfacet
facet normal 0.0 0.0 1.0
  outer loop
    vertex 72.08407417371092 72.66881904510252 7.999999999999999
    vertex 72.08407417371093 72.15118095489748 7.999999999999999
    vertex 72.18397459621556 72.91000000000001 7.999999999999999
  endloop
endfacet
facet normal 0.0 0.0 1.0
  outer loop
    vertex 72.18397459621556 72.91000000000001 7.999999999999999
    vertex 72.08407417371093 72.15118095489748 7.999999999999999
    vertex 72.18397459621556 71.91000000000001 7.999999999999999
  endloop
endfacet
facet normal 0.0 0.0 1.0
  outer loop
    vertex 72.18397459621556 72.91000000000001 7.999999999999999
    vertex 72.18397459621556 71.91000000000001 7.999999999999999
    vertex 72.34289321881344 71.70289321881346 7.999999999999999
  endloop
endfacet
facet normal 0.0 0.0 1.0
  outer loop
    vertex 72.18397459621556 72.91000000000001 7.999999999999999
    vertex 72.34289321881344 71.70289321881346 7.999999999999999
    vertex 72.34289321881344 73.11710678118655 7.999999999999999
  endloop
endfacet
facet normal 0.0 0.0 1.0
  outer loop
    vertex 72.34289321881344 73.11710678118655 7.999999999999999
    vertex 72.34289321881344 71.70289321881346 7.999999999999999
    vertex 72.55 71.54397459621558 7.999999999999999
  endloop
endfacet
facet normal 0.0 0.0 1.0
  outer loop
    vertex 72.34289321881344 73.11710678118655 7.999999999999999
    vertex 72.55 71.54397459621558 7.999999999999999
    vertex 72.55 73.27602540378444 7.999999999999999
  endloop
endfacet
facet normal 0.0 0.0 1.0
  outer loop
    vertex 72.55 73.27602540378444 7.999999999999999
    vertex 72.55 71.54397459621558 7.999999999999999
    vertex 72.79118095489747 71.44407417371093 7.999999999999999
  endloop
endfacet
facet normal 0.0 0.0 1.0
  outer loop
    vertex 72.55 73.27602540378444 7.999999999999999
    vertex 72.79118095489747 71.44407417371093 7.999999999999999
    vertex 72.79118095489747 73.37592582628906 7.999999999999999
  endloop
endfacet
facet normal 0.0 0.0 1.0
  outer loop
    vertex 72.79118095489747 73.37592582628906 7.999999999999999
    vertex 72.79118095489747 71.44407417371093 7.999999999999999
    vertex 73.05 71.41000000000001 7.999999999999999
  endloop
endfacet
facet normal 0.0 0.0 1.0
  outer loop
    vertex 72.79118095489747 73.37592582628906 7.999999999999999
    vertex 73.05 71.41000000000001 7.999999999999999
    vertex 73.05 73.41000000000001 7.999999999999999
  endloop
endfacet
facet normal 0.0 0.0 1.0
  outer loop
    vertex 73.05 73.41000000000001 7.999999999999999
    vertex 73.05 71.41000000000001 7.999999999999999
    vertex 73.30881904510251 71.44407417371093 7.999999999999999
  endloop
endfacet
facet normal 0.0 0.0 1.0
  outer loop
    vertex 73.05 73.41000000000001 7.999999999999999
    vertex 73.30881904510251 71.44407417371093 7.999999999999999
    vertex 73.30881904510251 73.37592582628908 7.999999999999999
  endloop
endfacet
facet normal 0.0 0.0 1.0
  outer loop
    vertex 73.30881904510251 73.37592582628908 7.999999999999999
    vertex 73.30881904510251 71.44407417371093 7.999999999999999
    vertex 73.54999999999998 71.54397459621558 7.999999999999999
  endloop
endfacet
facet normal 0.0 0.0 1.0
  outer loop
    vertex 73.30881904510251 73.37592582628908 7.999999999999999
    vertex 73.54999999999998 71.54397459621558 7.999999999999999
    vertex 73.54999999999998 73.27602540378444 7.999999999999999
  endloop
endfacet
facet normal 0.0 0.0 1.0
  outer loop
    vertex 73.54999999999998 73.27602540378444 7.999999999999999
    vertex 73.54999999999998 71.54397459621558 7.999999999999999
    vertex 73.75710678118654 71.70289321881346 7.999999999999999
  endloop
endfacet
facet normal 0.0 0.0 1.0
  outer loop
    vertex 73.54999999999998 73.27602540378444 7.999999999999999
    vertex 73.75710678118654 71.70289321881346 7.999999999999999
    vertex 73.75710678118654 73.11710678118655 7.999999999999999
  endloop
endfacet
facet normal 0.0 0.0 1.0
  outer loop
    vertex 73.75710678118654 73.11710678118655 7.999999999999999
    vertex 73.75710678118654 71.70289321881346 7.999999999999999
    vertex 73.91602540378442 71.91000000000001 7.999999999999999
  endloop
endfacet
facet normal 0.0 0.0 1.0
  outer loop
    vertex 73.75710678118654 73.11710678118655 7.999999999999999
    vertex 73.91602540378442 71.91000000000001 7.999999999999999
    vertex 73.91602540378442 72.91000000000001 7.999999999999999
  endloop
endfacet
facet normal 0.0 0.0 1.0
  outer loop
    vertex 73.91602540378442 72.91000000000001 7.999999999999999
    vertex 73.91602540378442 71.91000000000001 7.999999999999999
    vertex 74.01592582628906 72.15118095489748 7.999999999999999
  endloop
endfacet
facet normal 0.0 0.0 1.0
  outer loop
    vertex 73.91602540378442 72.91000000000001 7.999999999999999
    vertex 74.01592582628906 72.15118095489748 7.999999999999999
    vertex 74.01592582628905 72.66881904510252 7.999999999999999
  endloop
endfacet
facet normal 0.0 0.0 1.0
  outer loop
    vertex 74.01592582628905 72.66881904510252 7.999999999999999
    vertex 74.01592582628906 72.15118095489748 7.999999999999999
    vertex 74.04999999999998 72.41000000000001 7.999999999999999
  endloop
endfacet
facet normal 1.0 2.141339707923951e-14 0.0
  outer loop
    vertex 74.04999999999998 72.41000000000001 0.9999999999999999
    vertex 74.01592582628906 72.15118095489748 7.999999999999999
    vertex 74.01592582628906 72.15118095489748 0.9999999999999999
  endloop
endfacet
facet normal 0.9659258262890665 -0.2588190451025273 0.0
  outer loop
    vertex 74.01592582628906 72.15118095489748 7.999999999999999
    vertex 74.04999999999998 72.41000000000001 0.9999999999999999
    vertex 74.04999999999998 72.41000000000001 7.999999999999999
  endloop
endfacet
facet normal 0.9659258262890662 0.2588190451025286 0.0
  outer loop
    vertex 74.01592582628905 72.66881904510252 0.9999999999999999
    vertex 74.04999999999998 72.41000000000001 7.999999999999999
    vertex 74.04999999999998 72.41000000000001 0.9999999999999999
  endloop
endfacet
facet normal 1.0 2.141339707923951e-14 0.0
  outer loop
    vertex 74.04999999999998 72.41000000000001 7.999999999999999
    vertex 74.01592582628905 72.66881904510252 0.9999999999999999
    vertex 74.01592582628905 72.66881904510252 7.999999999999999
  endloop
endfacet
facet normal 0.8660254037844465 0.4999999999999864 0.0
  outer loop
    vertex 73.91602540378442 72.91000000000001 0.9999999999999999
    vertex 74.01592582628905 72.66881904510252 7.999999999999999
    vertex 74.01592582628905 72.66881904510252 0.9999999999999999
  endloop
endfacet
facet normal 0.9659258262890662 0.2588190451025286 0.0
  outer loop
    vertex 74.01592582628905 72.66881904510252 7.999999999999999
    vertex 73.91602540378442 72.91000000000001 0.9999999999999999
    vertex 73.91602540378442 72.91000000000001 7.999999999999999
  endloop
endfacet
facet normal 0.7071067811865476 0.7071067811865476 0.0
  outer loop
    vertex 73.75710678118654 73.11710678118655 0.9999999999999999
    vertex 73.91602540378442 72.91000000000001 7.999999999999999
    vertex 73.91602540378442 72.91000000000001 0.9999999999999999
  endloop
endfacet
facet normal 0.8660254037844465 0.4999999999999864 0.0
  outer loop
    vertex 73.91602540378442 72.91000000000001 7.999999999999999
    vertex 73.75710678118654 73.11710678118655 0.9999999999999999
    vertex 73.75710678118654 73.11710678118655 7.999999999999999
  endloop
endfacet
facet normal 0.5000000000000037 0.8660254037844365 0.0
  outer loop
    vertex 73.54999999999998 73.27602540378444 7.999999999999999
    vertex 73.75710678118654 73.11710678118655 0.9999999999999999
    vertex 73.54999999999998 73.27602540378444 0.9999999999999999
  endloop
endfacet
facet normal 0.7071067811865476 0.7071067811865476 0.0
  outer loop
    vertex 73.75710678118654 73.11710678118655 0.9999999999999999
    vertex 73.54999999999998 73.27602540378444 7.999999999999999
    vertex 73.75710678118654 73.11710678118655 7.999999999999999
  endloop
endfacet
facet normal 0.2588190451025273 0.9659258262890665 0.0
  outer loop
    vertex 73.30881904510251 73.37592582628908 7.999999999999999
    vertex 73.54999999999998 73.27602540378444 0.9999999999999999
    vertex 73.30881904510251 73.37592582628908 0.9999999999999999
  endloop
endfacet
facet normal 0.5000000000000037 0.8660254037844365 0.0
  outer loop
    vertex 73.54999999999998 73.27602540378444 0.9999999999999999
    vertex 73.30881904510251 73.37592582628908 7.999999999999999
    vertex 73.54999999999998 73.27602540378444 7.999999999999999
  endloop
endfacet
facet normal -2.141339707923951e-14 1.0 0.0
  outer loop
    vertex 73.05 73.41000000000001 7.999999999999999
    vertex 73.30881904510251 73.37592582628908 0.9999999999999999
    vertex 73.05 73.41000000000001 0.9999999999999999
  endloop
endfacet
facet normal 0.2588190451025273 0.9659258262890665 0.0
  outer loop
    vertex 73.30881904510251 73.37592582628908 0.9999999999999999
    vertex 73.05 73.41000000000001 7.999999999999999
    vertex 73.30881904510251 73.37592582628908 7.999999999999999
  endloop
endfacet
facet normal -0.2588190451025286 0.9659258262890662 0.0
  outer loop
    vertex 72.79118095489747 73.37592582628906 7.999999999999999
    vertex 73.05 73.41000000000001 0.9999999999999999
    vertex 72.79118095489747 73.37592582628906 0.9999999999999999
  endloop
endfacet
facet normal -2.141339707923951e-14 1.0 0.0
  outer loop
    vertex 73.05 73.41000000000001 0.9999999999999999
    vertex 72.79118095489747 73.37592582628906 7.999999999999999
    vertex 73.05 73.41000000000001 7.999999999999999
  endloop
endfacet
facet normal -0.4999999999999864 0.8660254037844465 0.0
  outer loop
    vertex 72.55 73.27602540378444 7.999999999999999
    vertex 72.79118095489747 73.37592582628906 0.9999999999999999
    vertex 72.55 73.27602540378444 0.9999999999999999
  endloop
endfacet
facet normal -0.2588190451025286 0.9659258262890662 0.0
  outer loop
    vertex 72.79118095489747 73.37592582628906 0.9999999999999999
    vertex 72.55 73.27602540378444 7.999999999999999
    vertex 72.79118095489747 73.37592582628906 7.999999999999999
  endloop
endfacet
facet normal -0.7071067811865476 0.7071067811865476 0.0
  outer loop
    vertex 72.34289321881344 73.11710678118655 7.999999999999999
    vertex 72.55 73.27602540378444 0.9999999999999999
    vertex 72.34289321881344 73.11710678118655 0.9999999999999999
  endloop
endfacet
facet normal -0.4999999999999864 0.8660254037844465 0.0
  outer loop
    vertex 72.55 73.27602540378444 0.9999999999999999
    vertex 72.34289321881344 73.11710678118655 7.999999999999999
    vertex 72.55 73.27602540378444 7.999999999999999
  endloop
endfacet
facet normal -0.7071067811865476 0.7071067811865476 0.0
  outer loop
    vertex 72.34289321881344 73.11710678118655 7.999999999999999
    vertex 72.18397459621556 72.91000000000001 0.9999999999999999
    vertex 72.18397459621556 72.91000000000001 7.999999999999999
  endloop
endfacet
facet normal -0.8660254037844365 0.5000000000000037 0.0
  outer loop
    vertex 72.18397459621556 72.91000000000001 0.9999999999999999
    vertex 72.34289321881344 73.11710678118655 7.999999999999999
    vertex 72.34289321881344 73.11710678118655 0.9999999999999999
  endloop
endfacet
facet normal -0.8660254037844365 0.5000000000000037 0.0
  outer loop
    vertex 72.18397459621556 72.91000000000001 7.999999999999999
    vertex 72.08407417371092 72.66881904510252 0.9999999999999999
    vertex 72.08407417371092 72.66881904510252 7.999999999999999
  endloop
endfacet
facet normal -0.9659258262890665 0.2588190451025273 0.0
  outer loop
    vertex 72.08407417371092 72.66881904510252 0.9999999999999999
    vertex 72.18397459621556 72.91000000000001 7.999999999999999
    vertex 72.18397459621556 72.91000000000001 0.9999999999999999
  endloop
endfacet
facet normal -0.9659258262890665 0.2588190451025273 0.0
  outer loop
    vertex 72.08407417371092 72.66881904510252 7.999999999999999
    vertex 72.05 72.41000000000001 0.9999999999999999
    vertex 72.05 72.41000000000001 7.999999999999999
  endloop
endfacet
facet normal -1.0 -2.141339707923951e-14 0.0
  outer loop
    vertex 72.05 72.41000000000001 0.9999999999999999
    vertex 72.08407417371092 72.66881904510252 7.999999999999999
    vertex 72.08407417371092 72.66881904510252 0.9999999999999999
  endloop
endfacet
facet normal -1.0 -2.141339707923951e-14 0.0
  outer loop
    vertex 72.05 72.41000000000001 7.999999999999999
    vertex 72.08407417371093 72.15118095489748 0.9999999999999999
    vertex 72.08407417371093 72.15118095489748 7.999999999999999
  endloop
endfacet
facet normal -0.9659258262890662 -0.2588190451025286 0.0
  outer loop
    vertex 72.08407417371093 72.15118095489748 0.9999999999999999
    vertex 72.05 72.41000000000001 7.999999999999999
    vertex 72.05 72.41000000000001 0.9999999999999999
  endloop
endfacet
facet normal -0.9659258262890662 -0.2588190451025286 0.0
  outer loop
    vertex 72.08407417371093 72.15118095489748 7.999999999999999
    vertex 72.18397459621556 71.91000000000001 0.9999999999999999
    vertex 72.18397459621556 71.91000000000001 7.999999999999999
  endloop
endfacet
facet normal -0.8660254037844465 -0.4999999999999864 0.0
  outer loop
    vertex 72.18397459621556 71.91000000000001 0.9999999999999999
    vertex 72.08407417371093 72.15118095489748 7.999999999999999
    vertex 72.08407417371093 72.15118095489748 0.9999999999999999
  endloop
endfacet
facet normal -0.8660254037844465 -0.4999999999999864 0.0
  outer loop
    vertex 72.18397459621556 71.91000000000001 7.999999999999999
    vertex 72.34289321881344 71.70289321881346 0.9999999999999999
    vertex 72.34289321881344 71.70289321881346 7.999999999999999
  endloop
endfacet
facet normal -0.7071067811865476 -0.7071067811865476 0.0
  outer loop
    vertex 72.34289321881344 71.70289321881346 0.9999999999999999
    vertex 72.18397459621556 71.91000000000001 7.999999999999999
    vertex 72.18397459621556 71.91000000000001 0.9999999999999999
  endloop
endfacet
facet normal -0.5000000000000037 -0.8660254037844365 0.0
  outer loop
    vertex 72.55 71.54397459621558 7.999999999999999
    vertex 72.34289321881344 71.70289321881346 0.9999999999999999
    vertex 72.55 71.54397459621558 0.9999999999999999
  endloop
endfacet
facet normal -0.7071067811865476 -0.7071067811865476 0.0
  outer loop
    vertex 72.34289321881344 71.70289321881346 0.9999999999999999
    vertex 72.55 71.54397459621558 7.999999999999999
    vertex 72.34289321881344 71.70289321881346 7.999999999999999
  endloop
endfacet
facet normal -0.2588190451025273 -0.9659258262890665 0.0
  outer loop
    vertex 72.79118095489747 71.44407417371093 7.999999999999999
    vertex 72.55 71.54397459621558 0.9999999999999999
    vertex 72.79118095489747 71.44407417371093 0.9999999999999999
  endloop
endfacet
facet normal -0.5000000000000037 -0.8660254037844365 0.0
  outer loop
    vertex 72.55 71.54397459621558 0.9999999999999999
    vertex 72.79118095489747 71.44407417371093 7.999999999999999
    vertex 72.55 71.54397459621558 7.999999999999999
  endloop
endfacet
facet normal 0.0 -0.9999999999999999 0.0
  outer loop
    vertex 73.05 71.41000000000001 7.999999999999999
    vertex 72.79118095489747 71.44407417371093 0.9999999999999999
    vertex 73.05 71.41000000000001 0.9999999999999999
  endloop
endfacet
facet normal -0.2588190451025273 -0.9659258262890665 0.0
  outer loop
    vertex 72.79118095489747 71.44407417371093 0.9999999999999999
    vertex 73.05 71.41000000000001 7.999999999999999
    vertex 72.79118095489747 71.44407417371093 7.999999999999999
  endloop
endfacet
facet normal 0.2588190451025273 -0.9659258262890665 0.0
  outer loop
    vertex 73.30881904510251 71.44407417371093 7.999999999999999
    vertex 73.05 71.41000000000001 0.9999999999999999
    vertex 73.30881904510251 71.44407417371093 0.9999999999999999
  endloop
endfacet
facet normal 0.0 -0.9999999999999999 0.0
  outer loop
    vertex 73.05 71.41000000000001 0.9999999999999999
    vertex 73.30881904510251 71.44407417371093 7.999999999999999
    vertex 73.05 71.41000000000001 7.999999999999999
  endloop
endfacet
facet normal 0.5000000000000037 -0.8660254037844365 0.0
  outer loop
    vertex 73.54999999999998 71.54397459621558 7.999999999999999
    vertex 73.30881904510251 71.44407417371093 0.9999999999999999
    vertex 73.54999999999998 71.54397459621558 0.9999999999999999
  endloop
endfacet
facet normal 0.2588190451025273 -0.9659258262890665 0.0
  outer loop
    vertex 73.30881904510251 71.44407417371093 0.9999999999999999
    vertex 73.54999999999998 71.54397459621558 7.999999999999999
    vertex 73.30881904510251 71.44407417371093 7.999999999999999
  endloop
endfacet
facet normal 0.7071067811865476 -0.7071067811865476 0.0
  outer loop
    vertex 73.75710678118654 71.70289321881346 7.999999999999999
    vertex 73.54999999999998 71.54397459621558 0.9999999999999999
    vertex 73.75710678118654 71.70289321881346 0.9999999999999999
  endloop
endfacet
facet normal 0.5000000000000037 -0.8660254037844365 0.0
  outer loop
    vertex 73.54999999999998 71.54397459621558 0.9999999999999999
    vertex 73.75710678118654 71.70289321881346 7.999999999999999
    vertex 73.54999999999998 71.54397459621558 7.999999999999999
  endloop
endfacet
facet normal 0.8660254037844365 -0.5000000000000037 0.0
  outer loop
    vertex 73.91602540378442 71.91000000000001 0.9999999999999999
    vertex 73.75710678118654 71.70289321881346 7.999999999999999
    vertex 73.75710678118654 71.70289321881346 0.9999999999999999
  endloop
endfacet
facet normal 0.7071067811865476 -0.7071067811865476 0.0
  outer loop
    vertex 73.75710678118654 71.70289321881346 7.999999999999999
    vertex 73.91602540378442 71.91000000000001 0.9999999999999999
    vertex 73.91602540378442 71.91000000000001 7.999999999999999
  endloop
endfacet
facet normal 0.9659258262890665 -0.2588190451025273 0.0
  outer loop
    vertex 74.01592582628906 72.15118095489748 0.9999999999999999
    vertex 73.91602540378442 71.91000000000001 7.999999999999999
    vertex 73.91602540378442 71.91000000000001 0.9999999999999999
  endloop
endfacet
facet normal 0.8660254037844365 -0.5000000000000037 0.0
  outer loop
    vertex 73.91602540378442 71.91000000000001 7.999999999999999
    vertex 74.01592582628906 72.15118095489748 0.9999999999999999
    vertex 74.01592582628906 72.15118095489748 7.999999999999999
  endloop
endfacet
facet normal 0.0 0.0 1.0
  outer loop
    vertex 72.08407417371092 11.33118095489748 7.999999999999999
    vertex 72.08407417371092 11.848819045102521 7.999999999999999
    vertex 72.05 11.590000000000002 7.999999999999999
  endloop
endfacet
facet normal 0.0 0.0 1.0
  outer loop
    vertex 72.08407417371092 11.848819045102521 7.999999999999999
    vertex 72.08407417371092 11.33118095489748 7.999999999999999
    vertex 72.18397459621556 11.09 7.999999999999999
  endloop
endfacet
facet normal 0.0 0.0 1.0
  outer loop
    vertex 72.08407417371092 11.848819045102521 7.999999999999999
    vertex 72.18397459621556 11.09 7.999999999999999
    vertex 72.18397459621556 12.09 7.999999999999999
  endloop
endfacet
facet normal 0.0 0.0 1.0
  outer loop
    vertex 72.18397459621556 12.09 7.999999999999999
    vertex 72.18397459621556 11.09 7.999999999999999
    vertex 72.34289321881344 10.882893218813454 7.999999999999999
  endloop
endfacet
facet normal 0.0 0.0 1.0
  outer loop
    vertex 72.18397459621556 12.09 7.999999999999999
    vertex 72.34289321881344 10.882893218813454 7.999999999999999
    vertex 72.34289321881344 12.29710678118655 7.999999999999999
  endloop
endfacet
facet normal 0.0 0.0 1.0
  outer loop
    vertex 72.34289321881344 12.29710678118655 7.999999999999999
    vertex 72.34289321881344 10.882893218813454 7.999999999999999
    vertex 72.55 10.723974596215564 7.999999999999999
  endloop
endfacet
facet normal 0.0 0.0 1.0
  outer loop
    vertex 72.34289321881344 12.29710678118655 7.999999999999999
    vertex 72.55 10.723974596215564 7.999999999999999
    vertex 72.55 12.45602540378444 7.999999999999999
  endloop
endfacet
facet normal 0.0 0.0 1.0
  outer loop
    vertex 72.55 12.45602540378444 7.999999999999999
    vertex 72.55 10.723974596215564 7.999999999999999
    vertex 72.79118095489747 10.624074173710934 7.999999999999999
  endloop
endfacet
facet normal 0.0 0.0 1.0
  outer loop
    vertex 72.55 12.45602540378444 7.999999999999999
    vertex 72.79118095489747 10.624074173710934 7.999999999999999
    vertex 72.79118095489747 12.55592582628907 7.999999999999999
  endloop
endfacet
facet normal 0.0 0.0 1.0
  outer loop
    vertex 72.79118095489747 12.55592582628907 7.999999999999999
    vertex 72.79118095489747 10.624074173710934 7.999999999999999
    vertex 73.05 10.590000000000002 7.999999999999999
  endloop
endfacet
facet normal 0.0 0.0 1.0
  outer loop
    vertex 72.79118095489747 12.55592582628907 7.999999999999999
    vertex 73.05 10.590000000000002 7.999999999999999
    vertex 73.05 12.59 7.999999999999999
  endloop
endfacet
facet normal 0.0 0.0 1.0
  outer loop
    vertex 73.05 12.59 7.999999999999999
    vertex 73.05 10.590000000000002 7.999999999999999
    vertex 73.30881904510251 10.624074173710934 7.999999999999999
  endloop
endfacet
facet normal 0.0 0.0 1.0
  outer loop
    vertex 73.05 12.59 7.999999999999999
    vertex 73.30881904510251 10.624074173710934 7.999999999999999
    vertex 73.30881904510251 12.55592582628907 7.999999999999999
  endloop
endfacet
facet normal 0.0 0.0 1.0
  outer loop
    vertex 73.30881904510251 12.55592582628907 7.999999999999999
    vertex 73.30881904510251 10.624074173710934 7.999999999999999
    vertex 73.54999999999998 10.723974596215564 7.999999999999999
  endloop
endfacet
facet normal 0.0 0.0 1.0
  outer loop
    vertex 73.30881904510251 12.55592582628907 7.999999999999999
    vertex 73.54999999999998 10.723974596215564 7.999999999999999
    vertex 73.54999999999998 12.45602540378444 7.999999999999999
  endloop
endfacet
facet normal 0.0 0.0 1.0
  outer loop
    vertex 73.54999999999998 12.45602540378444 7.999999999999999
    vertex 73.54999999999998 10.723974596215564 7.999999999999999
    vertex 73.75710678118654 10.882893218813454 7.999999999999999
  endloop
endfacet
facet normal 0.0 0.0 1.0
  outer loop
    vertex 73.54999999999998 12.45602540378444 7.999999999999999
    vertex 73.75710678118654 10.882893218813454 7.999999999999999
    vertex 73.75710678118654 12.29710678118655 7.999999999999999
  endloop
endfacet
facet normal 0.0 0.0 1.0
  outer loop
    vertex 73.75710678118654 12.29710678118655 7.999999999999999
    vertex 73.75710678118654 10.882893218813454 7.999999999999999
    vertex 73.91602540378442 11.090000000000002 7.999999999999999
  endloop
endfacet
facet normal 0.0 0.0 1.0
  outer loop
    vertex 73.75710678118654 12.29710678118655 7.999999999999999
    vertex 73.91602540378442 11.090000000000002 7.999999999999999
    vertex 73.91602540378442 12.090000000000002 7.999999999999999
  endloop
endfacet
facet normal 0.0 0.0 1.0
  outer loop
    vertex 73.91602540378442 12.090000000000002 7.999999999999999
    vertex 73.91602540378442 11.090000000000002 7.999999999999999
    vertex 74.01592582628906 11.331180954897482 7.999999999999999
  endloop
endfacet
facet normal 0.0 0.0 1.0
  outer loop
    vertex 73.91602540378442 12.090000000000002 7.999999999999999
    vertex 74.01592582628906 11.331180954897482 7.999999999999999
    vertex 74.01592582628906 11.848819045102523 7.999999999999999
  endloop
endfacet
facet normal 0.0 0.0 1.0
  outer loop
    vertex 74.01592582628906 11.848819045102523 7.999999999999999
    vertex 74.01592582628906 11.331180954897482 7.999999999999999
    vertex 74.04999999999998 11.590000000000002 7.999999999999999
  endloop
endfacet
facet normal -0.7071067811865522 0.7071067811865426 0.0
  outer loop
    vertex 72.34289321881344 12.29710678118655 7.999999999999999
    vertex 72.18397459621556 12.09 0.9999999999999999
    vertex 72.18397459621556 12.09 7.999999999999999
  endloop
endfacet
facet normal -0.8660254037844367 0.5000000000000033 0.0
  outer loop
    vertex 72.18397459621556 12.09 0.9999999999999999
    vertex 72.34289321881344 12.29710678118655 7.999999999999999
    vertex 72.34289321881344 12.29710678118655 0.9999999999999999
  endloop
endfacet
facet normal -0.8660254037844367 0.5000000000000033 0.0
  outer loop
    vertex 72.18397459621556 12.09 7.999999999999999
    vertex 72.08407417371092 11.848819045102521 0.9999999999999999
    vertex 72.08407417371092 11.848819045102521 7.999999999999999
  endloop
endfacet
facet normal -0.9659258262890669 0.25881904510252596 0.0
  outer loop
    vertex 72.08407417371092 11.848819045102521 0.9999999999999999
    vertex 72.18397459621556 12.09 7.999999999999999
    vertex 72.18397459621556 12.09 0.9999999999999999
  endloop
endfacet
facet normal -0.9659258262890669 0.25881904510252596 0.0
  outer loop
    vertex 72.08407417371092 11.848819045102521 7.999999999999999
    vertex 72.05 11.590000000000002 0.9999999999999999
    vertex 72.05 11.590000000000002 7.999999999999999
  endloop
endfacet
facet normal -1.0 3.653555057215221e-16 0.0
  outer loop
    vertex 72.05 11.590000000000002 0.9999999999999999
    vertex 72.08407417371092 11.848819045102521 7.999999999999999
    vertex 72.08407417371092 11.848819045102521 0.9999999999999999
  endloop
endfacet
facet normal -1.0 3.653555057215221e-16 0.0
  outer loop
    vertex 72.05 11.590000000000002 7.999999999999999
    vertex 72.08407417371092 11.33118095489748 0.9999999999999999
    vertex 72.08407417371092 11.33118095489748 7.999999999999999
  endloop
endfacet
facet normal -0.9659258262890669 -0.25881904510252557 0.0
  outer loop
    vertex 72.08407417371092 11.33118095489748 0.9999999999999999
    vertex 72.05 11.590000000000002 7.999999999999999
    vertex 72.05 11.590000000000002 0.9999999999999999
  endloop
endfacet
facet normal -0.9659258262890669 -0.25881904510252557 0.0
  outer loop
    vertex 72.08407417371092 11.33118095489748 7.999999999999999
    vertex 72.18397459621556 11.09 0.9999999999999999
    vertex 72.18397459621556 11.09 7.999999999999999
  endloop
endfacet
facet normal -0.8660254037844359 -0.5000000000000048 0.0
  outer loop
    vertex 72.18397459621556 11.09 0.9999999999999999
    vertex 72.08407417371092 11.33118095489748 7.999999999999999
    vertex 72.08407417371092 11.33118095489748 0.9999999999999999
  endloop
endfacet
facet normal -0.8660254037844359 -0.5000000000000048 0.0
  outer loop
    vertex 72.18397459621556 11.09 7.999999999999999
    vertex 72.34289321881344 10.882893218813454 0.9999999999999999
    vertex 72.34289321881344 10.882893218813454 7.999999999999999
  endloop
endfacet
facet normal -0.7071067811865513 -0.7071067811865437 0.0
  outer loop
    vertex 72.34289321881344 10.882893218813454 0.9999999999999999
    vertex 72.18397459621556 11.09 7.999999999999999
    vertex 72.18397459621556 11.09 0.9999999999999999
  endloop
endfacet
facet normal -0.4999999999999982 -0.8660254037844397 0.0
  outer loop
    vertex 72.55 10.723974596215564 7.999999999999999
    vertex 72.34289321881344 10.882893218813454 0.9999999999999999
    vertex 72.55 10.723974596215564 0.9999999999999999
  endloop
endfacet
facet normal -0.7071067811865513 -0.7071067811865437 0.0
  outer loop
    vertex 72.34289321881344 10.882893218813454 0.9999999999999999
    vertex 72.55 10.723974596215564 7.999999999999999
    vertex 72.34289321881344 10.882893218813454 7.999999999999999
  endloop
endfacet
facet normal -0.2588190451025232 -0.9659258262890676 0.0
  outer loop
    vertex 72.79118095489747 10.624074173710934 7.999999999999999
    vertex 72.55 10.723974596215564 0.9999999999999999
    vertex 72.79118095489747 10.624074173710934 0.9999999999999999
  endloop
endfacet
facet normal -0.4999999999999982 -0.8660254037844397 0.0
  outer loop
    vertex 72.55 10.723974596215564 0.9999999999999999
    vertex 72.79118095489747 10.624074173710934 7.999999999999999
    vertex 72.55 10.723974596215564 7.999999999999999
  endloop
endfacet
facet normal 0.0 -1.0 0.0
  outer loop
    vertex 73.05 10.590000000000002 7.999999999999999
    vertex 72.79118095489747 10.624074173710934 0.9999999999999999
    vertex 73.05 10.590000000000002 0.9999999999999999
  endloop
endfacet
facet normal -0.2588190451025232 -0.9659258262890676 0.0
  outer loop
    vertex 72.79118095489747 10.624074173710934 0.9999999999999999
    vertex 73.05 10.590000000000002 7.999999999999999
    vertex 72.79118095489747 10.624074173710934 7.999999999999999
  endloop
endfacet
facet normal 0.2588190451025232 -0.9659258262890676 0.0
  outer loop
    vertex 73.30881904510251 10.624074173710934 7.999999999999999
    vertex 73.05 10.590000000000002 0.9999999999999999
    vertex 73.30881904510251 10.624074173710934 0.9999999999999999
  endloop
endfacet
facet normal 0.0 -1.0 0.0
  outer loop
    vertex 73.05 10.590000000000002 0.9999999999999999
    vertex 73.30881904510251 10.624074173710934 7.999999999999999
    vertex 73.05 10.590000000000002 7.999999999999999
  endloop
endfacet
facet normal 0.5000000000000001 -0.8660254037844387 0.0
  outer loop
    vertex 73.54999999999998 10.723974596215564 7.999999999999999
    vertex 73.30881904510251 10.624074173710934 0.9999999999999999
    vertex 73.54999999999998 10.723974596215564 0.9999999999999999
  endloop
endfacet
facet normal 0.2588190451025232 -0.9659258262890676 0.0
  outer loop
    vertex 73.30881904510251 10.624074173710934 0.9999999999999999
    vertex 73.54999999999998 10.723974596215564 7.999999999999999
    vertex 73.30881904510251 10.624074173710934 7.999999999999999
  endloop
endfacet
facet normal 0.7071067811865527 -0.7071067811865424 0.0
  outer loop
    vertex 73.75710678118654 10.882893218813454 7.999999999999999
    vertex 73.54999999999998 10.723974596215564 0.9999999999999999
    vertex 73.75710678118654 10.882893218813454 0.9999999999999999
  endloop
endfacet
facet normal 0.5000000000000001 -0.8660254037844387 0.0
  outer loop
    vertex 73.54999999999998 10.723974596215564 0.9999999999999999
    vertex 73.75710678118654 10.882893218813454 7.999999999999999
    vertex 73.54999999999998 10.723974596215564 7.999999999999999
  endloop
endfacet
facet normal 0.8660254037844359 -0.5000000000000048 0.0
  outer loop
    vertex 73.91602540378442 11.090000000000002 0.9999999999999999
    vertex 73.75710678118654 10.882893218813454 7.999999999999999
    vertex 73.75710678118654 10.882893218813454 0.9999999999999999
  endloop
endfacet
facet normal 0.7071067811865527 -0.7071067811865424 0.0
  outer loop
    vertex 73.75710678118654 10.882893218813454 7.999999999999999
    vertex 73.91602540378442 11.090000000000002 0.9999999999999999
    vertex 73.91602540378442 11.090000000000002 7.999999999999999
  endloop
endfacet
facet normal 0.9659258262890669 -0.25881904510252596 0.0
  outer loop
    vertex 74.01592582628906 11.331180954897482 0.9999999999999999
    vertex 73.91602540378442 11.090000000000002 7.999999999999999
    vertex 73.91602540378442 11.090000000000002 0.9999999999999999
  endloop
endfacet
facet normal 0.8660254037844359 -0.5000000000000048 0.0
  outer loop
    vertex 73.91602540378442 11.090000000000002 7.999999999999999
    vertex 74.01592582628906 11.331180954897482 0.9999999999999999
    vertex 74.01592582628906 11.331180954897482 7.999999999999999
  endloop
endfacet
facet normal 1.0 -3.653555057215221e-16 0.0
  outer loop
    vertex 74.04999999999998 11.590000000000002 0.9999999999999999
    vertex 74.01592582628906 11.331180954897482 7.999999999999999
    vertex 74.01592582628906 11.331180954897482 0.9999999999999999
  endloop
endfacet
facet normal 0.9659258262890669 -0.25881904510252596 0.0
  outer loop
    vertex 74.01592582628906 11.331180954897482 7.999999999999999
    vertex 74.04999999999998 11.590000000000002 0.9999999999999999
    vertex 74.04999999999998 11.590000000000002 7.999999999999999
  endloop
endfacet
facet normal 0.9659258262890669 0.25881904510252557 0.0
  outer loop
    vertex 74.01592582628906 11.848819045102523 0.9999999999999999
    vertex 74.04999999999998 11.590000000000002 7.999999999999999
    vertex 74.04999999999998 11.590000000000002 0.9999999999999999
  endloop
endfacet
facet normal 1.0 -3.653555057215221e-16 0.0
  outer loop
    vertex 74.04999999999998 11.590000000000002 7.999999999999999
    vertex 74.01592582628906 11.848819045102523 0.9999999999999999
    vertex 74.01592582628906 11.848819045102523 7.999999999999999
  endloop
endfacet
facet normal 0.8660254037844359 0.5000000000000048 0.0
  outer loop
    vertex 73.91602540378442 12.090000000000002 0.9999999999999999
    vertex 74.01592582628906 11.848819045102523 7.999999999999999
    vertex 74.01592582628906 11.848819045102523 0.9999999999999999
  endloop
endfacet
facet normal 0.9659258262890669 0.25881904510252557 0.0
  outer loop
    vertex 74.01592582628906 11.848819045102523 7.999999999999999
    vertex 73.91602540378442 12.090000000000002 0.9999999999999999
    vertex 73.91602540378442 12.090000000000002 7.999999999999999
  endloop
endfacet
facet normal 0.7071067811865513 0.7071067811865437 0.0
  outer loop
    vertex 73.75710678118654 12.29710678118655 0.9999999999999999
    vertex 73.91602540378442 12.090000000000002 7.999999999999999
    vertex 73.91602540378442 12.090000000000002 0.9999999999999999
  endloop
endfacet
facet normal 0.8660254037844359 0.5000000000000048 0.0
  outer loop
    vertex 73.91602540378442 12.090000000000002 7.999999999999999
    vertex 73.75710678118654 12.29710678118655 0.9999999999999999
    vertex 73.75710678118654 12.29710678118655 7.999999999999999
  endloop
endfacet
facet normal 0.4999999999999982 0.8660254037844397 0.0
  outer loop
    vertex 73.54999999999998 12.45602540378444 7.999999999999999
    vertex 73.75710678118654 12.29710678118655 0.9999999999999999
    vertex 73.54999999999998 12.45602540378444 0.9999999999999999
  endloop
endfacet
facet normal 0.7071067811865513 0.7071067811865437 0.0
  outer loop
    vertex 73.75710678118654 12.29710678118655 0.9999999999999999
    vertex 73.54999999999998 12.45602540378444 7.999999999999999
    vertex 73.75710678118654 12.29710678118655 7.999999999999999
  endloop
endfacet
facet normal 0.2588190451025232 0.9659258262890676 0.0
  outer loop
    vertex 73.30881904510251 12.55592582628907 7.999999999999999
    vertex 73.54999999999998 12.45602540378444 0.9999999999999999
    vertex 73.30881904510251 12.55592582628907 0.9999999999999999
  endloop
endfacet
facet normal 0.4999999999999982 0.8660254037844397 0.0
  outer loop
    vertex 73.54999999999998 12.45602540378444 0.9999999999999999
    vertex 73.30881904510251 12.55592582628907 7.999999999999999
    vertex 73.54999999999998 12.45602540378444 7.999999999999999
  endloop
endfacet
facet normal 0.0 1.0 0.0
  outer loop
    vertex 73.05 12.59 7.999999999999999
    vertex 73.30881904510251 12.55592582628907 0.9999999999999999
    vertex 73.05 12.59 0.9999999999999999
  endloop
endfacet
facet normal 0.2588190451025232 0.9659258262890676 0.0
  outer loop
    vertex 73.30881904510251 12.55592582628907 0.9999999999999999
    vertex 73.05 12.59 7.999999999999999
    vertex 73.30881904510251 12.55592582628907 7.999999999999999
  endloop
endfacet
facet normal -0.2588190451025232 0.9659258262890676 0.0
  outer loop
    vertex 72.79118095489747 12.55592582628907 7.999999999999999
    vertex 73.05 12.59 0.9999999999999999
    vertex 72.79118095489747 12.55592582628907 0.9999999999999999
  endloop
endfacet
facet normal 0.0 1.0 0.0
  outer loop
    vertex 73.05 12.59 0.9999999999999999
    vertex 72.79118095489747 12.55592582628907 7.999999999999999
    vertex 73.05 12.59 7.999999999999999
  endloop
endfacet
facet normal -0.4999999999999982 0.8660254037844397 0.0
  outer loop
    vertex 72.55 12.45602540378444 7.999999999999999
    vertex 72.79118095489747 12.55592582628907 0.9999999999999999
    vertex 72.55 12.45602540378444 0.9999999999999999
  endloop
endfacet
facet normal -0.2588190451025232 0.9659258262890676 0.0
  outer loop
    vertex 72.79118095489747 12.55592582628907 0.9999999999999999
    vertex 72.55 12.45602540378444 7.999999999999999
    vertex 72.79118095489747 12.55592582628907 7.999999999999999
  endloop
endfacet
facet normal -0.7071067811865522 0.7071067811865426 0.0
  outer loop
    vertex 72.34289321881344 12.29710678118655 7.999999999999999
    vertex 72.55 12.45602540378444 0.9999999999999999
    vertex 72.34289321881344 12.29710678118655 0.9999999999999999
  endloop
endfacet
facet normal -0.4999999999999982 0.8660254037844397 0.0
  outer loop
    vertex 72.55 12.45602540378444 0.9999999999999999
    vertex 72.34289321881344 12.29710678118655 7.999999999999999
    vertex 72.55 12.45602540378444 7.999999999999999
  endloop
endfacet
facet normal -1.0 0.0 0.0
  outer loop
    vertex 76.5 0.0 5.499999999999998
    vertex 76.5 2.15 3.5
    vertex 76.5 0.0 0.9999999999999999
  endloop
endfacet
facet normal -1.0 0.0 0.0
  outer loop
    vertex 76.5 2.15 3.5
    vertex 76.5 0.0 5.499999999999998
    vertex 76.5 83.0 5.499999999999998
  endloop
endfacet
facet normal -1.0 0.0 0.0
  outer loop
    vertex 76.5 2.15 3.5
    vertex 76.5 83.0 5.499999999999998
    vertex 76.5 4.1499999999999995 3.5
  endloop
endfacet
facet normal -1.0 0.0 0.0
  outer loop
    vertex 76.5 4.1499999999999995 3.5
    vertex 76.5 83.0 5.499999999999998
    vertex 76.5 4.1499999999999995 0.9999999999999999
  endloop
endfacet
facet normal -1.0 0.0 0.0
  outer loop
    vertex 76.5 4.1499999999999995 0.9999999999999999
    vertex 76.5 83.0 5.499999999999998
    vertex 76.5 78.85000000000001 3.5
  endloop
endfacet
facet normal -1.0 0.0 0.0
  outer loop
    vertex 76.5 78.85000000000001 3.5
    vertex 76.5 83.0 5.499999999999998
    vertex 76.5 80.85000000000001 3.5
  endloop
endfacet
facet normal -1.0 0.0 0.0
  outer loop
    vertex 76.5 80.85000000000001 3.5
    vertex 76.5 83.0 5.499999999999998
    vertex 76.5 80.85000000000001 0.9999999999999999
  endloop
endfacet
facet normal -1.0 0.0 0.0
  outer loop
    vertex 76.5 80.85000000000001 0.9999999999999999
    vertex 76.5 83.0 5.499999999999998
    vertex 76.5 83.0 0.9999999999999999
  endloop
endfacet
facet normal -1.0 0.0 0.0
  outer loop
    vertex 76.5 78.85000000000001 0.9999999999999999
    vertex 76.5 4.1499999999999995 0.9999999999999999
    vertex 76.5 78.85000000000001 3.5
  endloop
endfacet
facet normal -1.0 0.0 0.0
  outer loop
    vertex 76.5 2.15 0.9999999999999999
    vertex 76.5 0.0 0.9999999999999999
    vertex 76.5 2.15 3.5
  endloop
endfacet
facet normal -1.0 0.0 0.0
  outer loop
    vertex 76.0 83.0 24.0
    vertex 76.0 52.41000000000001 14.000000000000002
    vertex 76.0 52.41000000000001 24.0
  endloop
endfacet
facet normal -1.0 0.0 0.0
  outer loop
    vertex 76.0 31.589999999999993 24.0
    vertex 76.0 0.0 5.499999999999998
    vertex 76.0 0.0 24.0
  endloop
endfacet
facet normal -1.0 0.0 0.0
  outer loop
    vertex 76.0 0.0 5.499999999999998
    vertex 76.0 31.589999999999993 24.0
    vertex 76.0 31.589999999999993 14.000000000000002
  endloop
endfacet
facet normal -1.0 0.0 0.0
  outer loop
    vertex 76.0 0.0 5.499999999999998
    vertex 76.0 31.589999999999993 14.000000000000002
    vertex 76.0 83.0 5.499999999999998
  endloop
endfacet
facet normal -1.0 0.0 0.0
  outer loop
    vertex 76.0 83.0 5.499999999999998
    vertex 76.0 31.589999999999993 14.000000000000002
    vertex 76.0 52.41000000000001 14.000000000000002
  endloop
endfacet
facet normal -1.0 0.0 0.0
  outer loop
    vertex 76.0 83.0 5.499999999999998
    vertex 76.0 52.41000000000001 14.000000000000002
    vertex 76.0 83.0 24.0
  endloop
endfacet
facet normal -0.0 -0.0 -1.0
  outer loop
    vertex 76.5 83.0 5.499999999999998
    vertex 76.0 0.0 5.499999999999998
    vertex 76.0 83.0 5.499999999999998
  endloop
endfacet
facet normal -0.0 -0.0 -1.0
  outer loop
    vertex 76.0 0.0 5.499999999999998
    vertex 76.5 83.0 5.499999999999998
    vertex 76.5 0.0 5.499999999999998
  endloop
endfacet
facet normal 1.0 1.036706322135079e-17 6.624783683439766e-17
  outer loop
    vertex 4.499999999999991 78.85000000000001 1.0
    vertex 4.499999999999991 4.1499999999999995 3.5
    vertex 4.499999999999991 4.1499999999999995 1.0
  endloop
endfacet
facet normal 1.0 1.036706322135079e-17 6.624783683439766e-17
  outer loop
    vertex 4.500000000000003 83.0 1.0
    vertex 4.499999999999991 80.85000000000001 3.5
    vertex 4.499999999999991 80.85000000000001 1.0
  endloop
endfacet
facet normal 1.0 1.036706322135079e-17 6.624783683439766e-17
  outer loop
    vertex 4.5 1.342356598678773e-19 5.499999999999998
    vertex 4.499999999999991 2.15 3.5
    vertex 4.499999999999996 83.0 5.499999999999998
  endloop
endfacet
facet normal 1.0 1.036706322135079e-17 6.624783683439766e-17
  outer loop
    vertex 4.499999999999991 2.15 3.5
    vertex 4.5 1.342356598678773e-19 5.499999999999998
    vertex 4.500000000000003 2.684713197357546e-19 1.0
  endloop
endfacet
facet normal 1.0 1.036706322135079e-17 6.624783683439766e-17
  outer loop
    vertex 4.499999999999991 2.15 3.5
    vertex 4.500000000000003 2.684713197357546e-19 1.0
    vertex 4.499999999999991 2.15 1.0
  endloop
endfacet
facet normal 1.0 1.036706322135079e-17 6.624783683439766e-17
  outer loop
    vertex 4.499999999999996 83.0 5.499999999999998
    vertex 4.499999999999991 2.15 3.5
    vertex 4.499999999999991 4.1499999999999995 3.5
  endloop
endfacet
facet normal 1.0 1.036706322135079e-17 6.624783683439766e-17
  outer loop
    vertex 4.499999999999996 83.0 5.499999999999998
    vertex 4.499999999999991 4.1499999999999995 3.5
    vertex 4.499999999999991 78.85000000000001 3.5
  endloop
endfacet
facet normal 1.0 1.036706322135079e-17 6.624783683439766e-17
  outer loop
    vertex 4.499999999999991 78.85000000000001 3.5
    vertex 4.499999999999991 4.1499999999999995 3.5
    vertex 4.499999999999991 78.85000000000001 1.0
  endloop
endfacet
facet normal 1.0 1.036706322135079e-17 6.624783683439766e-17
  outer loop
    vertex 4.499999999999996 83.0 5.499999999999998
    vertex 4.499999999999991 78.85000000000001 3.5
    vertex 4.499999999999991 80.85000000000001 3.5
  endloop
endfacet
facet normal 1.0 1.036706322135079e-17 6.624783683439766e-17
  outer loop
    vertex 4.499999999999996 83.0 5.499999999999998
    vertex 4.499999999999991 80.85000000000001 3.5
    vertex 4.500000000000003 83.0 1.0
  endloop
endfacet
facet normal 1.0 2.937465085987393e-17 -2.4769975860218014e-16
  outer loop
    vertex 4.999999999999995 83.0 5.499999999999998
    vertex 5.000000000000002 1.4955796749672715e-17 24.0
    vertex 5.0 1.4821561089804838e-17 5.499999999999998
  endloop
endfacet
facet normal 1.0 2.937465085987393e-17 -2.4769975860218014e-16
  outer loop
    vertex 5.000000000000002 1.4955796749672715e-17 24.0
    vertex 4.999999999999995 83.0 5.499999999999998
    vertex 5.000000000000002 83.0 24.0
  endloop
endfacet
facet normal -2.4769975860218014e-16 -1.455218785402819e-32 -1.0
  outer loop
    vertex 4.999999999999995 83.0 5.499999999999998
    vertex 4.5 1.342356598678773e-19 5.499999999999998
    vertex 4.499999999999996 83.0 5.499999999999998
  endloop
endfacet
facet normal -2.4769975860218014e-16 -1.455218785402819e-32 -1.0
  outer loop
    vertex 4.5 1.342356598678773e-19 5.499999999999998
    vertex 4.999999999999995 83.0 5.499999999999998
    vertex 5.0 1.4821561089804838e-17 5.499999999999998
  endloop
endfacet
facet normal -0.0 -0.0 1.0
  outer loop
    vertex 80.0 0.0 24.0
    vertex 76.0 31.589999999999993 24.0
    vertex 76.0 0.0 24.0
  endloop
endfacet
facet normal -0.0 -0.0 1.0
  outer loop
    vertex 76.0 31.589999999999993 24.0
    vertex 80.0 0.0 24.0
    vertex 80.0 31.589999999999993 24.0
  endloop
endfacet
facet normal -0.0 -0.0 1.0
  outer loop
    vertex 80.0 52.41000000000001 24.0
    vertex 76.0 83.0 24.0
    vertex 76.0 52.41000000000001 24.0
  endloop
endfacet
facet normal -0.0 -0.0 1.0
  outer loop
    vertex 76.0 83.0 24.0
    vertex 80.0 52.41000000000001 24.0
    vertex 80.0 83.0 24.0
  endloop
endfacet
facet normal 0.0 0.0 1.0
  outer loop
    vertex 80.0 31.589999999999993 14.000000000000002
    vertex 76.0 52.41000000000001 14.000000000000002
    vertex 76.0 31.589999999999993 14.000000000000002
  endloop
endfacet
facet normal 0.0 0.0 1.0
  outer loop
    vertex 76.0 52.41000000000001 14.000000000000002
    vertex 80.0 31.589999999999993 14.000000000000002
    vertex 80.0 52.41000000000001 14.000000000000002
  endloop
endfacet
facet normal -0.0 -1.0 -0.0
  outer loop
    vertex 80.0 52.41000000000001 24.0
    vertex 76.0 52.41000000000001 14.000000000000002
    vertex 80.0 52.41000000000001 14.000000000000002
  endloop
endfacet
facet normal -0.0 -1.0 -0.0
  outer loop
    vertex 76.0 52.41000000000001 14.000000000000002
    vertex 80.0 52.41000000000001 24.0
    vertex 76.0 52.41000000000001 24.0
  endloop
endfacet
facet normal -0.0 1.0 -0.0
  outer loop
    vertex 76.0 31.589999999999993 24.0
    vertex 80.0 31.589999999999993 14.000000000000002
    vertex 76.0 31.589999999999993 14.000000000000002
  endloop
endfacet
facet normal -0.0 1.0 -0.0
  outer loop
    vertex 80.0 31.589999999999993 14.000000000000002
    vertex 76.0 31.589999999999993 24.0
    vertex 80.0 31.589999999999993 24.0
  endloop
endfacet
endsolid d060697-rpi-case
