<?xml version="1.0" encoding="UTF-8"?>
<!DOCTYPE svg PUBLIC "-//W3C//DTD SVG 1.1//EN" "http://www.w3.org/Graphics/SVG/1.1/DTD/svg11.dtd">
<!-- Creator: Corel DESIGNER -->
<svg xmlns="http://www.w3.org/2000/svg" xml:space="preserve" width="7.68056in" height="6.12731in" style="shape-rendering:geometricPrecision; text-rendering:geometricPrecision; image-rendering:optimizeQuality; fill-rule:evenodd; clip-rule:evenodd"
viewBox="0 0 7.21561 5.75639"
 xmlns:xlink="http://www.w3.org/1999/xlink">
 <g id="Layer_x0020_1">
  <metadata id="CorelCorpID_0Corel-Layer"/>
  <path class="fill:#1F1A17;fill-rule:nonzero" d="M3.37946 0.704598l1.47444 0c-0.352299,1.46139 -0.574116,2.4139 -0.574116,3.45775 0,0.182674 0,1.59404 0.534973,1.59404 0.274009,0 0.508875,-0.25009 0.508875,-0.471907 0,-0.065241 0,-0.0913388 -0.0913351,-0.287058 -0.352299,-0.900321 -0.352299,-2.02246 -0.352299,-2.11379 0,-0.0782899 0,-1.00471 0.274009,-2.17904l1.46139 0c0.169629,0 0.600214,0 0.600214,-0.41754 0,-0.287058 -0.247915,-0.287058 -0.482781,-0.287058l-4.29283 0c-0.300103,0 -0.743741,0 -1.34396,0.639357 -0.33925,0.378393 -0.75679,1.06995 -0.75679,1.14823 0,0.0782899 0.065241,0.104388 0.143531,0.104388 0.0913351,0 0.104384,-0.0391468 0.169625,-0.117433 0.6785,-1.06995 1.357,-1.06995 1.68321,-1.06995l0.743745 0c-0.287062,0.978607 -0.613263,2.11379 -1.68321,4.39721 -0.104384,0.208768 -0.104384,0.234866 -0.104384,0.313156 0,0.276184 0.234866,0.341425 0.352299,0.341425 0.378397,0 0.482781,-0.341425 0.639357,-0.889447 0.208772,-0.665455 0.208772,-0.691549 0.33925,-1.21347l0.75679 -2.94887z"/>
 </g>
</svg>
