<?xml version="1.0" encoding="UTF-8" standalone="no"?>
<!-- Created with Inkscape (http://www.inkscape.org/) -->

<svg
   xmlns:dc="http://purl.org/dc/elements/1.1/"
   xmlns:cc="http://creativecommons.org/ns#"
   xmlns:rdf="http://www.w3.org/1999/02/22-rdf-syntax-ns#"
   xmlns:svg="http://www.w3.org/2000/svg"
   xmlns="http://www.w3.org/2000/svg"
   xmlns:sodipodi="http://sodipodi.sourceforge.net/DTD/sodipodi-0.dtd"
   xmlns:inkscape="http://www.inkscape.org/namespaces/inkscape"
   width="744.09448819"
   height="1052.3622047"
   id="svg2"
   version="1.1"
   inkscape:version="0.48.5 r10040"
   sodipodi:docname="New document 1">
  <defs
     id="defs4" />
  <sodipodi:namedview
     id="base"
     pagecolor="#ffffff"
     bordercolor="#666666"
     borderopacity="1.0"
     inkscape:pageopacity="0.0"
     inkscape:pageshadow="2"
     inkscape:zoom="1.4"
     inkscape:cx="253.07526"
     inkscape:cy="678.20273"
     inkscape:document-units="px"
     inkscape:current-layer="Layer_x0020_1"
     showgrid="false"
     showguides="true"
     inkscape:guide-bbox="true"
     inkscape:window-width="1920"
     inkscape:window-height="1165"
     inkscape:window-x="1920"
     inkscape:window-y="0"
     inkscape:window-maximized="1" />
  <metadata
     id="metadata7">
    <rdf:RDF>
      <cc:Work
         rdf:about="">
        <dc:format>image/svg+xml</dc:format>
        <dc:type
           rdf:resource="http://purl.org/dc/dcmitype/StillImage" />
        <dc:title></dc:title>
      </cc:Work>
    </rdf:RDF>
  </metadata>
  <g
     inkscape:label="Layer 1"
     inkscape:groupmode="layer"
     id="layer1">
    <text
       xml:space="preserve"
       style="font-size:64px;font-style:normal;font-variant:normal;font-weight:normal;font-stretch:normal;line-height:125%;letter-spacing:0px;word-spacing:0px;fill:#000000;fill-opacity:1;stroke:none;font-family:Latin Modern Roman;-inkscape-font-specification:Latin Modern Roman"
       x="240"
       y="315.21933"
       id="text2985"
       sodipodi:linespacing="125%"><tspan
         sodipodi:role="line"
         id="tspan2987"
         x="240"
         y="315.21933"
         style="font-style:normal;font-variant:normal;font-weight:normal;font-stretch:normal;font-family:Alan Den;-inkscape-font-specification:Alan Den" /></text>
    <g
       transform="matrix(25.994895,0,0,25.994895,332.52038,277.40104)"
       style="fill-rule:evenodd"
       id="Layer_x0020_1">
      <metadata
         id="CorelCorpID_0Corel-Layer" />
      <g
         style="font-size:14.38273525px;font-style:normal;font-variant:normal;font-weight:normal;font-stretch:normal;line-height:125%;letter-spacing:0px;word-spacing:0px;fill:#383838;fill-opacity:1;stroke:none;font-family:Latin Modern Roman;-inkscape-font-specification:Latin Modern Roman"
         id="text3000">
        <path
           d="M 2.7329489,-0.00173857 C 2.288718,-0.01422481 2.0565887,0.00117895 1.0210328,0.00117895 c -1.63963048,0 -2.8621646,1.16500285 -2.8621646,2.47383045 0,1.9129019 2.05673254,2.1286449 3.1785848,2.2437067 0.7479014,0.071914 1.9992001,0.230125 1.9992001,1.4814217 0,0.7191361 -0.5177802,1.6683973 -2.2724721,1.6683973 -1.04993866,0 -1.49580496,-0.4027169 -1.76907668,-0.7622849 C -1.0213156,6.6891513 -1.1219951,6.1857548 -1.1939087,5.8261867 l -0.6472231,0 c 0.043148,0.4027162 -0.025994,1.1310578 -0.025994,1.3108419 0,0.1797841 -0.012724,0.4960967 -0.090585,1.1829143 -0.077861,0.6868176 0.7249424,0.893772 0.7638021,0.3108772 0.071914,-0.4746298 0.086296,-0.5177786 0.1294447,-0.6472231 0.028765,-0.043148 0.086296,-0.1150619 0.14382726,-0.1150619 0.043148,0 0.1006792,0.043148 0.1150619,0.057531 0.258889,0.2157408 0.81981728,0.6616058 1.97043504,0.6616058 1.4095065,0 2.9484606,-0.7766694 2.9484606,-2.445065 0,-0.8198151 -0.4027171,-1.3375947 -0.8917296,-1.6683973 C 2.718196,4.143407 2.200416,4.0714929 1.121712,3.9564311 0.41695857,3.8845175 -1.0644641,3.7263061 -1.0644641,2.4174785 c 0,-0.7191361 0.66160734,-1.69716279 2.1717933,-1.69716279 1.1362349,0 0.6870543,-0.0164251 1.4684744,-0.0164251"
           style="fill:#383838;fill-opacity:1;font-family:Courier;-inkscape-font-specification:Courier"
           id="path3005"
           inkscape:connector-curvature="0"
           sodipodi:nodetypes="csscssccczzccscssccssc" />
      </g>
      <path
         inkscape:connector-curvature="0"
         class="fill:#1F1A17;fill-rule:nonzero"
         d="m 3.37946,0.704598 1.47444,0 c -0.352299,1.46139 -0.574116,2.4139 -0.574116,3.45775 0,0.182674 0,1.59404 0.534973,1.59404 0.274009,0 0.508875,-0.25009 0.508875,-0.471907 0,-0.065241 0,-0.091339 -0.091335,-0.287058 -0.352299,-0.900321 -0.352299,-2.02246 -0.352299,-2.11379 0,-0.07829 0,-1.00471 0.274009,-2.17904 l 1.0440884,0 c 0.169629,0 0.600214,0 0.600214,-0.41754 C 6.7983093,-5e-6 6.5503943,-5e-6 6.3155283,-5e-6 l -3.8755284,0 c -1.255028,0 -1.1485645,0.704592 -0.104384,0.704592 l 0.743745,0 c -0.287062,0.978607 -0.2635276,1.1908733 -1.0614556,2.5708064 -0.104384,0.208768 -0.104384,0.234866 -0.104384,0.313156 0,0.276184 0.234866,0.341425 0.352299,0.341425 0.378397,0 0.482781,-0.341425 0.639357,-0.889447 0.208772,-0.665455 0.3225856,-1.341106 0.3878246,-1.6020665 0.065239,-0.2609605 0.086461,-0.7338699 0.086461,-0.7338699 z"
         id="path6"
         sodipodi:nodetypes="ccssscscsssccccssczcc"
         style="fill:#7f0e40;fill-opacity:1" />
    </g>
  </g>
</svg>
